<svg id="Layer_1" data-name="Layer 1" xmlns="http://www.w3.org/2000/svg" xmlns:xlink="http://www.w3.org/1999/xlink" viewBox="0 0 4500 2500"><defs><style>.cls-1{fill:none;}.cls-2{fill:#aed3f0;}.cls-3{clip-path:url(#clip-path);}.cls-4{fill:#c3dcf3;}.cls-10,.cls-11,.cls-12,.cls-13,.cls-14,.cls-15,.cls-16,.cls-18,.cls-19,.cls-21,.cls-23,.cls-24,.cls-26,.cls-27,.cls-28,.cls-34,.cls-35,.cls-36,.cls-37,.cls-4,.cls-41,.cls-42,.cls-43,.cls-44,.cls-45,.cls-46,.cls-47,.cls-48,.cls-49,.cls-51,.cls-52,.cls-53,.cls-56,.cls-58,.cls-59,.cls-60,.cls-61,.cls-62,.cls-63,.cls-66,.cls-67,.cls-68,.cls-69,.cls-70,.cls-71{fill-rule:evenodd;}.cls-5{fill:#97c6ec;}.cls-6{fill:#abd1ef;}.cls-40,.cls-7,.cls-8{fill:#fff;}.cls-7{fill-opacity:0.45;}.cls-8{fill-opacity:0.55;}.cls-11,.cls-9{fill:#1a4976;}.cls-10,.cls-50{fill:#14385a;}.cls-12{fill:#3676a8;}.cls-13{fill:#84bde9;}.cls-14,.cls-29{fill:#65ade2;}.cls-15{fill:#4e86af;}.cls-16{fill:#3a6482;}.cls-17{fill-opacity:0.23;}.cls-18{fill:#90c3eb;}.cls-19{fill:#d4e8f7;}.cls-20{fill:#365795;}.cls-21,.cls-22{fill:#355795;}.cls-23{fill:#b1d5f0;}.cls-24{fill:url(#linear-gradient);}.cls-25{fill:#2b78c3;}.cls-26{fill:#7d9cb4;}.cls-27{fill:#96afc2;}.cls-28{fill:url(#linear-gradient-2);}.cls-30{fill:#d9edff;}.cls-31{fill:#cce6ff;}.cls-32{fill:#f7fbff;}.cls-33{fill:#eaf4fb;}.cls-34{fill:#83bde8;}.cls-35{fill:#73a5ca;}.cls-36{fill:url(#linear-gradient-3);}.cls-37{fill:#ffd3e5;}.cls-38,.cls-45{fill:#ec6198;}.cls-39{fill:#ffa4c9;}.cls-40{fill-opacity:0.93;}.cls-41,.cls-65{fill:#edd573;}.cls-42{fill:#3fa092;}.cls-43{fill:#ec6098;}.cls-44{fill:#c55e86;}.cls-46{fill:url(#linear-gradient-4);}.cls-47{fill:#fffbfd;}.cls-48{fill:#ff9cc4;}.cls-49{fill:url(#linear-gradient-5);}.cls-51{fill:#1c4f80;}.cls-52{fill:url(#linear-gradient-6);}.cls-53{fill:#c5e8e3;}.cls-54{fill:#58beae;}.cls-55,.cls-56{fill:#87d0c5;}.cls-57{fill:#44ae9e;}.cls-58{fill:#2b6d63;}.cls-59{fill:url(#linear-gradient-7);}.cls-60{fill:#4bb9a8;}.cls-61{fill:url(#linear-gradient-8);}.cls-62{fill:url(#linear-gradient-9);}.cls-63{fill:#fff4c7;}.cls-64,.cls-66{fill:#e3bf28;}.cls-67{fill:url(#linear-gradient-10);}.cls-68{fill:#fffdf4;}.cls-69{fill:#e8d485;}.cls-70{fill:url(#linear-gradient-11);}.cls-71{fill:url(#linear-gradient-12);}</style><clipPath id="clip-path"><rect class="cls-1" width="4500" height="2500"/></clipPath><linearGradient id="linear-gradient" x1="1291.8" y1="1791.42" x2="1292.99" y2="1790.96" gradientTransform="matrix(-261.35, -497.22, -663.95, 5.85, 1528435.84, 632586.87)" gradientUnits="userSpaceOnUse"><stop offset="0" stop-color="#fff" stop-opacity="0"/><stop offset="1" stop-color="#fff"/></linearGradient><linearGradient id="linear-gradient-2" x1="1288.36" y1="1785.43" x2="1289.54" y2="1785.43" gradientTransform="matrix(-23.32, 327.09, 327.09, 23.32, -553673.77, -461076.45)" gradientUnits="userSpaceOnUse"><stop offset="0" stop-opacity="0"/><stop offset="1"/></linearGradient><linearGradient id="linear-gradient-3" x1="1291.7" y1="1791.87" x2="1292.88" y2="1791.01" gradientTransform="matrix(-368.27, -451.05, -505.16, 5.3, 1381194.82, 574967)" xlink:href="#linear-gradient"/><linearGradient id="linear-gradient-4" x1="1291.83" y1="1793.24" x2="1293.01" y2="1793.24" gradientTransform="matrix(-2.39, -330.41, -330.41, 2.39, 597831.75, 424770.8)" xlink:href="#linear-gradient-2"/><linearGradient id="linear-gradient-5" x1="1291.5" y1="1791.75" x2="1292.69" y2="1791.3" gradientTransform="matrix(-220.06, -497.22, -559.05, 5.85, 1287686.25, 633400.93)" xlink:href="#linear-gradient"/><linearGradient id="linear-gradient-6" x1="1288.28" y1="1786.57" x2="1289.46" y2="1786.57" gradientTransform="matrix(-23.32, 327.09, 327.09, 23.32, -551609, -461076.45)" xlink:href="#linear-gradient-2"/><linearGradient id="linear-gradient-7" x1="1291.82" y1="1792.79" x2="1293.01" y2="1792.79" gradientTransform="matrix(-2.39, -330.41, -330.41, 2.39, 598636.38, 424771.57)" xlink:href="#linear-gradient-2"/><linearGradient id="linear-gradient-8" x1="1291.5" y1="1791.49" x2="1292.68" y2="1791.04" gradientTransform="matrix(-220.06, -497.22, -559.05, 5.85, 1288490.88, 633401.7)" xlink:href="#linear-gradient"/><linearGradient id="linear-gradient-9" x1="1288.24" y1="1787.02" x2="1289.43" y2="1787.02" gradientTransform="matrix(-23.32, 327.09, 327.09, 23.32, -550804.37, -461075.67)" xlink:href="#linear-gradient-2"/><linearGradient id="linear-gradient-10" x1="1291.82" y1="1792.36" x2="1293" y2="1792.36" gradientTransform="matrix(-2.39, -330.41, -330.41, 2.39, 599435.08, 424774.73)" xlink:href="#linear-gradient-2"/><linearGradient id="linear-gradient-11" x1="1291.49" y1="1791.24" x2="1292.68" y2="1790.78" gradientTransform="matrix(-220.06, -497.22, -559.05, 5.85, 1289289.57, 633404.85)" xlink:href="#linear-gradient"/><linearGradient id="linear-gradient-12" x1="1288.22" y1="1787.46" x2="1289.4" y2="1787.46" gradientTransform="matrix(-23.32, 327.09, 327.09, 23.32, -550005.68, -461072.52)" xlink:href="#linear-gradient-2"/></defs><g id="c40"><rect class="cls-2" width="4500" height="2500"/><rect class="cls-1" width="4500" height="2500"/><g class="cls-3"><path class="cls-4" d="M4500,2500H1777c189.78-256.14,452-422.81,769.47-468.43,166.19-23.88,340.45-30.36,507.55-11,383.85,44.45,1066.8,236.35,1413.68,6.61q16.74-11.06,32.36-23.42ZM4500,591c-58.36-59.94-123.24-112.55-193-155.42-161.9-99.46-358.3-141.68-543.07-173.82C2856.9,103.9,1954.37,580,1054,381.88,806.85,327.5,501.58,201.07,301.88,0H4500Z"/><rect class="cls-5" x="-44.71" y="860.99" width="1504.57" height="1723.4"/><rect class="cls-5" x="2110.46" y="860.99" width="1504.57" height="1723.4"/><rect class="cls-5" x="3475.01" y="860.99" width="1504.57" height="1723.4"/><rect class="cls-6" x="42.1" y="985.61" width="308.78" height="182.77"/><rect class="cls-6" x="2197.27" y="985.61" width="308.78" height="182.77"/><rect class="cls-6" x="3561.82" y="985.61" width="308.78" height="182.77"/><rect class="cls-6" x="438.71" y="985.61" width="308.78" height="182.77"/><rect class="cls-6" x="2593.87" y="985.61" width="308.78" height="182.77"/><rect class="cls-6" x="3958.43" y="985.61" width="308.78" height="182.77"/><rect class="cls-6" x="835.31" y="985.61" width="308.78" height="182.77"/><rect class="cls-6" x="2990.48" y="985.61" width="308.78" height="182.77"/><rect class="cls-6" x="4355.03" y="985.61" width="308.78" height="182.77"/><rect class="cls-7" x="1146.55" y="-185.84" width="17.44" height="2691.51"/><rect class="cls-7" x="984.74" y="-185.84" width="17.44" height="2691.51"/><rect class="cls-7" x="822.92" y="-185.84" width="17.44" height="2691.51"/><rect class="cls-7" x="661.1" y="-185.84" width="17.44" height="2691.51"/><rect class="cls-7" x="499.29" y="-185.84" width="17.44" height="2691.51"/><rect class="cls-7" x="337.47" y="-185.84" width="17.44" height="2691.51"/><rect class="cls-7" x="175.65" y="-185.84" width="17.44" height="2691.51"/><rect class="cls-8" x="-10.86" y="-7.6" width="1352.24" height="14.94"/><rect class="cls-8" x="-10.86" y="168.11" width="1352.24" height="14.94"/><rect class="cls-8" x="-10.86" y="343.82" width="1352.24" height="14.94"/><rect class="cls-8" x="-10.86" y="519.54" width="1352.24" height="14.94"/><rect class="cls-8" x="-10.86" y="695.25" width="1352.24" height="14.94"/><rect class="cls-8" x="-10.86" y="870.96" width="1352.24" height="14.94"/><rect class="cls-8" x="-10.86" y="1046.67" width="1352.24" height="14.94"/><rect class="cls-8" x="-10.86" y="1222.38" width="1352.24" height="14.94"/><rect class="cls-8" x="-10.86" y="1398.09" width="1352.24" height="14.94"/><rect class="cls-8" x="-10.86" y="1573.8" width="1352.24" height="14.94"/><rect class="cls-8" x="-10.86" y="1749.51" width="1352.24" height="14.94"/><rect class="cls-8" x="-10.86" y="1925.22" width="1352.24" height="14.94"/><rect class="cls-8" x="-10.86" y="2100.94" width="1352.24" height="14.94"/><rect class="cls-8" x="-10.86" y="2276.65" width="1352.24" height="14.94"/><rect class="cls-9" x="806.56" y="763.71" width="48.67" height="26.18"/><rect class="cls-9" x="806.56" y="669.25" width="48.67" height="26.18"/><path class="cls-10" d="M763,855.62a58.17,58.17,0,0,0-58.1,59.16c2.24,146.3,7.86,513.09,7.86,513.09l-272.13,4.21s-6-388-9.06-590.78A254.45,254.45,0,0,1,685.67,582.52l613.23.34-.13,273Z"/><path class="cls-11" d="M1298.88,657.3l-.12,198.61L763,855.62a58.19,58.19,0,0,0-58.11,59.16c2.25,146.3,7.87,513.1,7.87,513.1L568,1430.12l-7.9-514.31A254.49,254.49,0,0,1,814.24,657Z"/><path class="cls-12" d="M601.24,867.56a6.36,6.36,0,0,0-4.58-2.25c-5.24,0-9.48,8.09-9.48,18.05s4.24,18,9.48,18c2,0,3.87-1.19,5.4-3.22-2.92-3.08-4.89-9-4.89-15.79C597.17,876.25,598.78,870.82,601.24,867.56Z"/><path class="cls-12" d="M601.24,1001.64a6.33,6.33,0,0,0-4.58-2.25c-5.24,0-9.48,8.08-9.48,18.05s4.24,18,9.48,18c2,0,3.87-1.18,5.4-3.21-2.92-3.08-4.89-9-4.89-15.8C597.17,1010.33,598.78,1004.9,601.24,1001.64Z"/><path class="cls-12" d="M601.24,1135.71a6.33,6.33,0,0,0-4.58-2.25c-5.24,0-9.48,8.08-9.48,18s4.24,18,9.48,18c2,0,3.87-1.18,5.4-3.21-2.92-3.08-4.89-9-4.89-15.8C597.17,1144.4,598.78,1139,601.24,1135.71Z"/><path class="cls-12" d="M601.24,1269.78a6.35,6.35,0,0,0-4.58-2.24c-5.24,0-9.48,8.08-9.48,18s4.24,18,9.48,18c2,0,3.87-1.19,5.4-3.21-2.92-3.09-4.89-9-4.89-15.8C597.17,1278.47,598.78,1273,601.24,1269.78Z"/><path class="cls-13" d="M1627.74,754.4h-10.19v224l-.26,19.53v486.47h10.45Z"/><path class="cls-14" d="M1616.93,756.44l-56.52,70H1052.15v1688h564.78Z"/><path class="cls-15" d="M1520.49,1016.28a10.6,10.6,0,1,0-21.2,0V1200a10.6,10.6,0,1,0,21.2,0Z"/><path class="cls-16" d="M1515,1006.94a10.64,10.64,0,0,0-5.55,9.34V1200a6.31,6.31,0,1,0,11.08,0V1016.28A10.66,10.66,0,0,0,1515,1006.94Z"/><path class="cls-15" d="M1432,1016.28a10.6,10.6,0,1,0-21.19,0V1200a10.6,10.6,0,1,0,21.19,0Z"/><path class="cls-16" d="M1426.45,1006.94a10.65,10.65,0,0,0-5.54,9.34V1200a6.31,6.31,0,1,0,11.07,0V1016.28A10.64,10.64,0,0,0,1426.45,1006.94Z"/><path class="cls-15" d="M1343.48,1016.28a10.6,10.6,0,1,0-21.2,0V1200a10.6,10.6,0,1,0,21.2,0Z"/><path class="cls-16" d="M1338,1006.94a10.65,10.65,0,0,0-5.54,9.34V1200a6.31,6.31,0,1,0,11.07,0V1016.28A10.64,10.64,0,0,0,1338,1006.94Z"/><path class="cls-15" d="M1255,1016.28a10.6,10.6,0,1,0-21.2,0V1200a10.6,10.6,0,1,0,21.2,0Z"/><path class="cls-16" d="M1249.45,1006.94a10.63,10.63,0,0,0-5.54,9.34V1200a6.31,6.31,0,1,0,11.07,0V1016.28A10.66,10.66,0,0,0,1249.45,1006.94Z"/><path class="cls-14" d="M1627.74,465.89h348.17c14.84,0,29.07,12.81,39.56,35.62s16.39,53.76,16.39,86V2220.28H1627.74Z"/><rect class="cls-9" x="1821.76" y="763.71" width="48.67" height="26.18"/><rect class="cls-9" x="1821.76" y="669.25" width="48.67" height="26.18"/><rect class="cls-17" x="1849.53" y="783.77" width="146.55" height="750.9"/><path class="cls-12" d="M1666.33,920.72a6.36,6.36,0,0,1-4.58,2.25c-5.23,0-9.48-8.09-9.48-18.05s4.25-18,9.48-18c2,0,3.87,1.19,5.4,3.22-2.92,3.08-4.89,9-4.89,15.8C1662.26,912,1663.87,917.46,1666.33,920.72Z"/><path class="cls-12" d="M1666.33,1036.67a6.35,6.35,0,0,1-4.58,2.24c-5.23,0-9.48-8.08-9.48-18s4.25-18,9.48-18c2,0,3.87,1.19,5.4,3.22-2.92,3.08-4.89,9-4.89,15.79C1662.26,1028,1663.87,1033.41,1666.33,1036.67Z"/><path class="cls-12" d="M1666.33,1152.61a6.33,6.33,0,0,1-4.58,2.25c-5.23,0-9.48-8.08-9.48-18s4.25-18,9.48-18c2,0,3.87,1.19,5.4,3.21-2.92,3.08-4.89,9-4.89,15.8C1662.26,1143.93,1663.87,1149.35,1666.33,1152.61Z"/><path class="cls-18" d="M1773.82,482.6l-129.7,297.54a4.08,4.08,0,0,0,7.59,3L1781.4,485.57a4.07,4.07,0,1,0-7.58-3Z"/><path class="cls-18" d="M1756.62,483.68c5-11-1.61-20-14.66-20H1236.73c-13,0-27.68,9-32.64,20L1052.77,820c-5,11,1.61,20,14.66,20h505.23c13,0,27.67-9,32.63-20Z"/><path class="cls-19" d="M1731.72,495.58c4.6-10.24-1.5-18.56-13.62-18.56H1248.61c-12.12,0-25.71,8.32-30.32,18.56L1077.67,808.07c-4.61,10.24,1.5,18.56,13.62,18.56h469.49c12.12,0,25.71-8.32,30.31-18.56Z"/><path class="cls-20" d="M1193.45,645.77l3.48-7.93a59.22,59.22,0,0,0,8-.73A18.16,18.16,0,0,0,1212,634a18.87,18.87,0,0,0,4.14-4.25,14.81,14.81,0,0,0,1.49-2.37h9.65l-26,59.26h-11.89l17.92-40.87Z"/><path class="cls-20" d="M1265.36,673.89h-6.68l-5.59,12.75h-11.37l5.6-12.75h-23.39l4.47-10.18,37.49-36h13l-16.24,37h6.68Zm-14-9.11,11.23-25.59-26,25.59Z"/><path class="cls-20" d="M1330.49,668.45a13.66,13.66,0,0,0-1.44,5.89c.16,2.86,2.09,4.29,5.82,4.29a12.68,12.68,0,0,0,7-2.35,15.08,15.08,0,0,0,5.52-6.76q2.56-5.85-1.3-7.81c-1.47-.74-4.14-1.1-8-1.1l3.66-8.34a26.61,26.61,0,0,0,8.38-1.1,12.16,12.16,0,0,0,6.92-6.95q1.48-3.39.44-5.52c-.69-1.42-2.24-2.12-4.63-2.12a10.77,10.77,0,0,0-7.19,2.61,18.05,18.05,0,0,0-4.92,7h-10.84a45.66,45.66,0,0,1,5.18-8.38,36.35,36.35,0,0,1,7.3-6.42,26.75,26.75,0,0,1,6.81-3.18,28,28,0,0,1,8.19-1.11q8.47,0,11.74,4.4t0,11.79a22.35,22.35,0,0,1-7,8.83,19.15,19.15,0,0,1-5.43,3.06q1.6,0,3.37,2.74,2.63,4.13-.51,11.28a33.06,33.06,0,0,1-11,13.22,29.23,29.23,0,0,1-17.88,5.7q-12.55,0-13.83-8.21-.66-4.38,2.16-11.45Z"/><path class="cls-20" d="M1418.66,649.57,1414,660.32h-44.12l4.71-10.75Zm-8.37,19.09-4.71,10.75h-44.13l4.72-10.75Z"/><polygon class="cls-21" points="1289.89 654.17 1316.29 654.17 1313.83 659.76 1287.44 659.76 1289.89 654.17"/><ellipse class="cls-22" cx="1307.23" cy="645.49" rx="5.36" ry="3.46" transform="translate(-114.81 966.89) rotate(-39.01)"/><ellipse class="cls-22" cx="1296.95" cy="668.93" rx="5.36" ry="3.46" transform="translate(-131.86 965.64) rotate(-39.01)"/><path class="cls-20" d="M1453.26,673.89h-6.69L1441,686.64h-11.36l5.59-12.75h-23.39l4.47-10.18,37.49-36h13l-16.24,37h6.69Zm-14-9.11,11.22-25.59-26,25.59Z"/><path class="cls-20" d="M1514.35,636.86l-7.09,16.19h14.21a19.4,19.4,0,0,0,6.79-1,12,12,0,0,0,6.72-6.79q2.41-5.47-.4-7.36c-1-.7-2.93-1.06-5.64-1.06Zm34.74-4.7a12.3,12.3,0,0,1,.87,5.07,17.24,17.24,0,0,1-1.64,6.33,29,29,0,0,1-5.86,8.44,21.88,21.88,0,0,1-9.7,5.87c2.28,1.12,3.55,2.7,3.8,4.76s-.55,5.2-2.4,9.42l-1.78,4.05a39.17,39.17,0,0,0-2.13,5.6c-.35,1.55-.09,2.69.78,3.43l-.66,1.51h-13.81c.2-1.33.4-2.41.6-3.23a34.78,34.78,0,0,1,1.74-5.19l2.38-5.6q2.45-5.76,1.27-7.68t-6.71-1.92h-13l-10.36,23.62h-12.26l26.42-60.24h29.46q6.25.12,9,1.55A8.12,8.12,0,0,1,1549.09,632.16Z"/><path class="cls-20" d="M1544.32,675q5.09-5.93,17.23-12.54a159.68,159.68,0,0,0,14-8.26,21.51,21.51,0,0,0,7.36-8.5q1.65-3.77.66-6.25t-4.85-2.5a11.68,11.68,0,0,0-9,4,30.86,30.86,0,0,0-4.5,7.27H1554a46.07,46.07,0,0,1,8.09-12.22,27.32,27.32,0,0,1,20.39-8.87q9.36,0,12.62,5.21t-.51,13.8a31.71,31.71,0,0,1-9,11.69,72.71,72.71,0,0,1-11.75,7.56l-6.09,3.31q-5.71,3.11-7.94,4.49a25.68,25.68,0,0,0-4.13,3.23h25.79l-4.5,10.26h-40.45A44.75,44.75,0,0,1,1544.32,675Z"/><path class="cls-23" d="M1086.7,826.18c.18-.53.4-1.08.64-1.63L1228,512.06c4.6-10.24,18.18-18.55,30.31-18.55h469.49a22.88,22.88,0,0,1,4.6.44c3.28-9.48-2.8-16.93-14.27-16.93H1248.61c-12.13,0-25.71,8.32-30.32,18.56L1077.67,808.07C1073.69,816.92,1077.7,824.33,1086.7,826.18Z"/><path class="cls-24" d="M1549.09,477,1148,651.81l-70.32,156.26c-3.61,8-.65,14.85,6.61,17.44l630.77-292.89,16.67-37c4.6-10.24-1.5-18.56-13.62-18.56Zm-132.66,0H1248.61c-12.13,0-25.71,8.32-30.32,18.56l-42.09,93.55Z"/><rect class="cls-25" x="1996.84" y="572.05" width="11.03" height="426.02"/><path class="cls-10" d="M1914,855.62a58.15,58.15,0,0,1,58.1,59.16c-2.23,146.3-7.85,513.09-7.85,513.09l272.12,4.21s6-388,9.06-590.78a254.44,254.44,0,0,0-254.13-258.78l-141.64.08.15,273Z"/><path class="cls-11" d="M1849.73,657l.11,198.61,64.19,0a58.17,58.17,0,0,1,58.11,59.16c-2.24,146.3-7.86,513.1-7.86,513.1l144.74,2.24,7.89-514.31A254.49,254.49,0,0,0,1862.75,657Z"/><path class="cls-12" d="M2075.75,867.56a6.36,6.36,0,0,1,4.58-2.25c5.24,0,9.48,8.08,9.48,18.05s-4.24,18-9.48,18c-2,0-3.87-1.18-5.4-3.21,2.92-3.08,4.89-9,4.89-15.8C2079.82,876.25,2078.21,870.82,2075.75,867.56Z"/><path class="cls-12" d="M2075.75,1001.64a6.33,6.33,0,0,1,4.58-2.25c5.24,0,9.48,8.08,9.48,18s-4.24,18-9.48,18c-2,0-3.87-1.19-5.4-3.21,2.92-3.08,4.89-9,4.89-15.8C2079.82,1010.32,2078.21,1004.9,2075.75,1001.64Z"/><path class="cls-12" d="M2075.75,1135.71a6.36,6.36,0,0,1,4.58-2.25c5.24,0,9.48,8.09,9.48,18s-4.24,18-9.48,18c-2,0-3.87-1.19-5.4-3.22,2.92-3.08,4.89-9,4.89-15.79C2079.82,1144.4,2078.21,1139,2075.75,1135.71Z"/><path class="cls-12" d="M2075.75,1269.78a6.36,6.36,0,0,1,4.58-2.25c5.24,0,9.48,8.09,9.48,18s-4.24,18-9.48,18c-2,0-3.87-1.19-5.4-3.22,2.92-3.08,4.89-9,4.89-15.8C2079.82,1278.47,2078.21,1273,2075.75,1269.78Z"/><path class="cls-26" d="M544.62,2026.4a63.64,63.64,0,0,0-63.55-63.75H-50.83V2094.5h531.9a63.64,63.64,0,0,0,63.55-63.76Z"/><path class="cls-27" d="M544.62,2026.4a66.27,66.27,0,0,0-17.37-45.08,57.3,57.3,0,0,0-41.95-18.67H-11.16V2094.5H485.3a57.33,57.33,0,0,0,41.95-18.67,66.3,66.3,0,0,0,17.37-45.09Z"/><path class="cls-28" d="M11.41,1962.65H9.59l-20.75,8.94v122.9H485.3a57.27,57.27,0,0,0,41.94-18.67,66.22,66.22,0,0,0,17.38-45.08v-4.34c0-1.07,0-2.13-.07-3.2-130,35-278.49,11.53-406.45-20.26C105.75,1994.9,31.87,1990.84,11.41,1962.65Zm-19.72,0h-2.85v3C-10.22,1964.61-9.27,1963.63-8.31,1962.65Z"/><path class="cls-26" d="M279.3,2026.4a63.64,63.64,0,0,0-63.55-63.75h-531.9V2094.5h531.9a63.64,63.64,0,0,0,63.55-63.76Z"/><path class="cls-27" d="M279.3,2026.4a66.27,66.27,0,0,0-17.37-45.08,57.3,57.3,0,0,0-42-18.67H-276.48V2094.5H220a57.33,57.33,0,0,0,42-18.67,66.3,66.3,0,0,0,17.37-45.09Z"/><path class="cls-19" d="M-315.81,1962.65H215.75a63.64,63.64,0,0,1,63.55,63.75v4.34a63.64,63.64,0,0,1-63.55,63.75H-315.81v-12.43H215.75a51.23,51.23,0,0,0,51.15-51.32v-4.34a51.23,51.23,0,0,0-51.15-51.32H-315.81Z"/><path class="cls-26" d="M72.19,1987.74a41.8,41.8,0,0,0-12,0l-1.95,6.73a35.08,35.08,0,0,0-10.71,4.45l-6.13-3.37a41.65,41.65,0,0,0-8.5,8.53l3.36,6.14A35.64,35.64,0,0,0,31.79,2021l-6.7,2a41.31,41.31,0,0,0,0,12.06l6.7,2a35.43,35.43,0,0,0,4.44,10.75l-3.36,6.14a41.7,41.7,0,0,0,8.5,8.54L47.5,2059a35.33,35.33,0,0,0,10.71,4.45l1.95,6.72a41.1,41.1,0,0,0,12,0l2-6.72A35.33,35.33,0,0,0,84.86,2059l6.13,3.37a41.45,41.45,0,0,0,8.5-8.54l-3.35-6.14a35.4,35.4,0,0,0,4.43-10.75l6.71-2a42,42,0,0,0,0-12.06l-6.71-2a35.61,35.61,0,0,0-4.43-10.75l3.35-6.14a41.4,41.4,0,0,0-8.5-8.53l-6.13,3.37a35.08,35.08,0,0,0-10.71-4.45Zm-6,25A16.25,16.25,0,1,1,50,2029,16.23,16.23,0,0,1,66.18,2012.72Z"/><path class="cls-19" d="M64.78,1987.74a41.8,41.8,0,0,0-12,0l-2,6.73a35.18,35.18,0,0,0-10.71,4.45L34,1995.55a41.4,41.4,0,0,0-8.5,8.53l3.35,6.14A35.36,35.36,0,0,0,24.38,2021l-6.71,2a41.31,41.31,0,0,0,0,12.06l6.71,2a35.15,35.15,0,0,0,4.43,10.75l-3.35,6.14a41.45,41.45,0,0,0,8.5,8.54l6.12-3.37a35.44,35.44,0,0,0,10.71,4.45l2,6.72a41.1,41.1,0,0,0,12,0l2-6.72A35.44,35.44,0,0,0,77.45,2059l6.12,3.37a41.45,41.45,0,0,0,8.5-8.54l-3.35-6.14A35.4,35.4,0,0,0,93.15,2037l6.71-2a42,42,0,0,0,0-12.06l-6.71-2a35.61,35.61,0,0,0-4.43-10.75l3.35-6.14a41.4,41.4,0,0,0-8.5-8.53l-6.12,3.37a35.18,35.18,0,0,0-10.71-4.45Zm-6,25A16.25,16.25,0,1,1,42.57,2029,16.23,16.23,0,0,1,58.76,2012.72Z"/><path class="cls-26" d="M227.25,1987.74a41.73,41.73,0,0,0-12,0l-2,6.73a35.18,35.18,0,0,0-10.71,4.45l-6.12-3.37a41.4,41.4,0,0,0-8.5,8.53l3.35,6.14a35.36,35.36,0,0,0-4.43,10.75l-6.71,2a41.31,41.31,0,0,0,0,12.06l6.71,2a35.15,35.15,0,0,0,4.43,10.75l-3.35,6.14a41.45,41.45,0,0,0,8.5,8.54l6.12-3.37a35.44,35.44,0,0,0,10.71,4.45l2,6.72a41,41,0,0,0,12,0l2-6.72a35.44,35.44,0,0,0,10.71-4.45l6.12,3.37a41.45,41.45,0,0,0,8.5-8.54l-3.35-6.14a35.4,35.4,0,0,0,4.43-10.75l6.71-2a42,42,0,0,0,0-12.06l-6.71-2a35.61,35.61,0,0,0-4.43-10.75l3.35-6.14a41.4,41.4,0,0,0-8.5-8.53l-6.12,3.37a35.18,35.18,0,0,0-10.71-4.45Zm-6,25A16.25,16.25,0,1,1,205.05,2029,16.23,16.23,0,0,1,221.24,2012.72Z"/><path class="cls-19" d="M219.84,1987.74a41.8,41.8,0,0,0-12,0l-1.95,6.73a35.08,35.08,0,0,0-10.71,4.45l-6.13-3.37a41.4,41.4,0,0,0-8.5,8.53l3.35,6.14a35.36,35.36,0,0,0-4.43,10.75l-6.71,2a42,42,0,0,0,0,12.06l6.71,2a35.15,35.15,0,0,0,4.43,10.75l-3.35,6.14a41.45,41.45,0,0,0,8.5,8.54l6.13-3.37a35.33,35.33,0,0,0,10.71,4.45l1.95,6.72a41.1,41.1,0,0,0,12,0l2-6.72a35.33,35.33,0,0,0,10.71-4.45l6.13,3.37a41.7,41.7,0,0,0,8.5-8.54l-3.36-6.14a35.43,35.43,0,0,0,4.44-10.75l6.7-2a42,42,0,0,0,0-12.06l-6.7-2a35.64,35.64,0,0,0-4.44-10.75l3.36-6.14a41.65,41.65,0,0,0-8.5-8.53l-6.13,3.37a35.08,35.08,0,0,0-10.71-4.45Zm-6,25a16.25,16.25,0,1,1-16.2,16.25A16.22,16.22,0,0,1,213.83,2012.72Z"/><path class="cls-13" d="M555.45,1784.26H545.26v109.11l-.26,13.4v333.59h10.45Z"/><rect class="cls-29" x="90.71" y="1352.18" width="464.74" height="1150.39"/><rect class="cls-30" x="196.95" y="1400.67" width="298.89" height="152.14"/><rect class="cls-31" x="196.95" y="1400.67" width="75.11" height="152.14"/><rect class="cls-32" x="196.91" y="1420.68" width="299.17" height="2.48"/><rect class="cls-32" x="196.91" y="1442.21" width="299.17" height="2.48"/><rect class="cls-32" x="196.91" y="1463.74" width="299.17" height="2.48"/><rect class="cls-32" x="196.91" y="1485.27" width="299.17" height="2.48"/><rect class="cls-32" x="196.91" y="1506.79" width="299.17" height="2.48"/><rect class="cls-32" x="196.91" y="1528.32" width="299.17" height="2.48"/><rect class="cls-33" x="307.65" y="1584.45" width="186.07" height="4.26"/><rect class="cls-33" x="387.27" y="1598.15" width="106.45" height="4.26"/><path class="cls-34" d="M555.45,1351.92H903.62a56,56,0,0,1,56,56.12v1120.6H555.45Z"/><path class="cls-35" d="M917.93,1980.51a12.31,12.31,0,0,0-12.29-12.33H627.78a12.31,12.31,0,0,0-12.28,12.33V2183.1a12.32,12.32,0,0,0,12.28,12.33H905.64a12.33,12.33,0,0,0,12.29-12.33Z"/><path class="cls-15" d="M878.11,2017.7a8.12,8.12,0,1,0-16.24,0v140.79a8.12,8.12,0,1,0,16.24,0Z"/><path class="cls-16" d="M873.87,2010.54a8.17,8.17,0,0,0-4.24,7.16v140.79a4.83,4.83,0,1,0,8.48,0V2017.7A8.17,8.17,0,0,0,873.87,2010.54Z"/><path class="cls-15" d="M810.29,2017.7a8.12,8.12,0,1,0-16.24,0v140.79a8.12,8.12,0,1,0,16.24,0Z"/><path class="cls-16" d="M806.05,2010.54a8.17,8.17,0,0,0-4.24,7.16v140.79a4.83,4.83,0,1,0,8.48,0V2017.7A8.17,8.17,0,0,0,806.05,2010.54Z"/><path class="cls-15" d="M742.47,2017.7a8.13,8.13,0,1,0-16.25,0v140.79a8.13,8.13,0,1,0,16.25,0Z"/><path class="cls-16" d="M738.23,2010.54a8.16,8.16,0,0,0-4.25,7.16v140.79a8.15,8.15,0,0,0,4.25,7.15,8.16,8.16,0,0,0,4.24-7.15V2017.7A8.17,8.17,0,0,0,738.23,2010.54Z"/><path class="cls-15" d="M674.64,2017.7a8.12,8.12,0,1,0-16.24,0v140.79a8.12,8.12,0,1,0,16.24,0Z"/><path class="cls-16" d="M670.41,2010.54a8.16,8.16,0,0,0-4.25,7.16v140.79a8.15,8.15,0,0,0,4.25,7.15,8.17,8.17,0,0,0,4.23-7.15V2017.7A8.18,8.18,0,0,0,670.41,2010.54Z"/><path class="cls-18" d="M530.49,1656.25a18,18,0,0,0-17.94-18.12H126.63a18.24,18.24,0,0,0-18.17,18.12l-1.9,305.07a18,18,0,0,0,18,18.11H510.43a18.23,18.23,0,0,0,18.17-18.11Z"/><path class="cls-19" d="M515.49,1667a16.68,16.68,0,0,0-16.67-16.83H140.21A16.93,16.93,0,0,0,123.33,1667l-1.77,283.48a16.7,16.7,0,0,0,16.68,16.84H496.85a17,17,0,0,0,16.88-16.84Z"/><path class="cls-20" d="M161.84,1797.05v-15.38a100.63,100.63,0,0,0,14.93-1.42,21.08,21.08,0,0,0,11.06-6,19.84,19.84,0,0,0,4.42-8.24,18.92,18.92,0,0,0,.87-4.6h18.73V1876.3H188.78v-79.25Z"/><path class="cls-20" d="M325.21,1851.57H312.26v24.73h-22v-24.73H244.87v-19.73L287,1762.1h25.29v71.8h12.95Zm-35-17.67v-49.61l-28.68,49.61Z"/><path class="cls-20" d="M366.84,1755.91h18.72L340.3,1876.3H321.74Z"/><path class="cls-20" d="M401.92,1841a25.92,25.92,0,0,0,2.21,11.41q4.11,8.32,14.93,8.33a16.51,16.51,0,0,0,11.57-4.56q5-4.56,4.94-13.11,0-11.34-9.16-15.15-5.22-2.13-16.44-2.14v-16.16q11-.17,15.33-2.14,7.5-3.33,7.51-13.48a15.08,15.08,0,0,0-3.83-10.69q-3.84-4.12-10.79-4.12-8,0-11.73,5.07t-3.6,13.55h-21a57.13,57.13,0,0,1,2.92-16.25,36.52,36.52,0,0,1,8.7-12.44A30.21,30.21,0,0,1,404,1763a45.21,45.21,0,0,1,14.93-2.14q16.44,0,26.5,8.52t10.08,22.86a25.29,25.29,0,0,1-6,17.12,20.5,20.5,0,0,1-7.89,6q3.07,0,8.84,5.31,8.61,8,8.61,21.87A36.85,36.85,0,0,1,449,1868.09q-10.06,11.07-29.82,11.06-24.33,0-33.81-15.92-5-8.49-5.53-22.2Z"/><path class="cls-23" d="M134.58,1967c0-.48-.06-1-.06-1.48L136.29,1682a16.94,16.94,0,0,1,16.88-16.84H511.78a16.36,16.36,0,0,1,3.66.41,16.69,16.69,0,0,0-16.62-15.36H140.21A16.94,16.94,0,0,0,123.33,1667l-1.77,283.48A16.72,16.72,0,0,0,134.58,1967Z"/><path class="cls-36" d="M369.72,1650.21,122.45,1808.77l-.89,141.75a16.73,16.73,0,0,0,10.95,15.82l382.78-265.69.21-33.61a16.7,16.7,0,0,0-16.68-16.83Zm-101.33,0H140.21A16.94,16.94,0,0,0,123.33,1667l-.53,84.86Z"/><path class="cls-37" d="M1960.34,1784.26H1495.6v109.11l-11.87,13.4v621.86h476.61Z"/><rect class="cls-38" x="1535.12" y="2066.39" width="137.57" height="94.26"/><rect class="cls-38" x="1740.39" y="2066.39" width="137.57" height="94.26"/><rect class="cls-39" x="1535.12" y="2097.47" width="137.57" height="63.19"/><rect class="cls-39" x="1740.39" y="2097.47" width="137.57" height="63.19"/><ellipse class="cls-40" cx="1596.51" cy="1983.38" rx="42.69" ry="40.44"/><ellipse class="cls-40" cx="1703.46" cy="1983.38" rx="42.69" ry="40.44"/><ellipse class="cls-40" cx="1810.41" cy="1983.38" rx="42.69" ry="40.44"/><path class="cls-41" d="M1594.63,1979.79a5.13,5.13,0,0,0-2.17,3.78,5,5,0,0,0,1.58,4l23.61,22.42s-9.8-18.74-14.83-28.38a5.44,5.44,0,0,0-3.64-2.74,5.7,5.7,0,0,0-4.54.89Zm3.1,3.91h0a.32.32,0,0,1,.47.11l.85,1.64-1.36-1.3a.29.29,0,0,1-.1-.23A.33.33,0,0,1,1597.73,1983.7Z"/><path class="cls-42" d="M1701.58,1979.79a5.17,5.17,0,0,0-2.18,3.78,5,5,0,0,0,1.59,4L1724.6,2010s-9.8-18.74-14.83-28.38a5.44,5.44,0,0,0-3.64-2.74,5.68,5.68,0,0,0-4.54.89Zm3.09,3.91h0a.36.36,0,0,1,.27,0,.34.34,0,0,1,.21.16l.85,1.64-1.36-1.3a.29.29,0,0,1-.1-.23A.32.32,0,0,1,1704.67,1983.7Z"/><path class="cls-43" d="M1808.53,1979.79a5.14,5.14,0,0,0-2.18,3.78,5,5,0,0,0,1.59,4l23.61,22.42-14.84-28.38a5.42,5.42,0,0,0-3.63-2.74,5.72,5.72,0,0,0-4.55.89Zm3.09,3.91h0a.34.34,0,0,1,.26,0,.31.31,0,0,1,.21.16l.86,1.64-1.36-1.3a.26.26,0,0,1-.1-.23A.32.32,0,0,1,1811.62,1983.7Z"/><path class="cls-44" d="M1960.34,1784.25h-10.19v171.14l-.26,21v523.18h10.45Z"/><path class="cls-44" d="M1960.34,1784.25H1495.6V1892.6l-12.26,13.85h466.25l10.75-12.93Z"/><rect class="cls-38" x="1495.6" y="1784.25" width="464.74" height="108.29"/><path class="cls-44" d="M1960.34,1430.85h348.17a56,56,0,0,1,55.95,56.14V2528.64H1960.34Z"/><path class="cls-45" d="M1998.93,1885.68a6.31,6.31,0,0,1-4.58,2.25c-5.23,0-9.48-8.08-9.48-18s4.25-18,9.48-18c2,0,3.87,1.19,5.4,3.21-2.92,3.08-4.89,9-4.89,15.8C1994.86,1877,1996.47,1882.42,1998.93,1885.68Z"/><path class="cls-45" d="M1998.93,2001.63a6.31,6.31,0,0,1-4.58,2.25c-5.23,0-9.48-8.08-9.48-18.05s4.25-18,9.48-18c2,0,3.87,1.18,5.4,3.21-2.92,3.08-4.89,9-4.89,15.8C1994.86,1992.94,1996.47,1998.37,1998.93,2001.63Z"/><path class="cls-45" d="M1998.93,2117.58a6.35,6.35,0,0,1-4.58,2.25c-5.23,0-9.48-8.09-9.48-18s4.25-18,9.48-18c2,0,3.87,1.19,5.4,3.22-2.92,3.08-4.89,9-4.89,15.8C1994.86,2108.89,1996.47,2114.32,1998.93,2117.58Z"/><path class="cls-46" d="M2124.05,2071.65l240.41-68.08v236.79l-240.41-150.52Z"/><path class="cls-45" d="M2106.42,1447.56l-136,349a4.07,4.07,0,1,0,7.58,3l136-348.94a4.07,4.07,0,1,0-7.58-3Z"/><path class="cls-37" d="M2090.64,1448.64c4.18-11-1.35-20-12.34-20H1652.89c-11,0-23.3,8.95-27.48,20L1498,1784.94c-4.17,11,1.36,20,12.35,20h425.41c11,0,23.3-9,27.47-20Z"/><path class="cls-47" d="M2069.67,1460.54c3.88-10.24-1.25-18.55-11.46-18.55H1662.9c-10.21,0-21.65,8.31-25.53,18.55L1519,1773c-3.88,10.24,1.26,18.56,11.47,18.56h395.31c10.21,0,21.65-8.32,25.53-18.56Z"/><path class="cls-20" d="M1823,1663.07h-19.39l-16.23,37h-33l16.22-37h-67.84l13-29.53,108.77-104.35h37.82l-47.12,107.44h19.39Zm-40.77-26.44,32.56-74.23-75.46,74.23Z"/><path class="cls-48" d="M1526.56,1791.15c.15-.54.34-1.08.55-1.63L1645.51,1477c3.88-10.24,15.32-18.56,25.53-18.56h395.31a15.8,15.8,0,0,1,3.87.45c2.77-9.48-2.35-16.93-12-16.93H1662.89c-10.21,0-21.64,8.31-25.52,18.55L1519,1773C1515.61,1781.88,1519,1789.3,1526.56,1791.15Z"/><path class="cls-49" d="M1915.9,1442l-337.73,174.79L1519,1773c-3,8-.55,14.86,5.57,17.45l531.11-292.89,14-37c3.87-10.24-1.27-18.55-11.47-18.55Zm-111.7,0H1662.89c-10.21,0-21.64,8.31-25.52,18.55l-35.44,93.55Z"/><rect class="cls-50" x="2123.94" y="1537.01" width="216.53" height="426.02"/><path class="cls-51" d="M2340.47,1963l-216.53-426h216.53Z"/><rect class="cls-25" x="2329.44" y="1537.01" width="11.03" height="426.02"/><path class="cls-26" d="M2984.32,2026.4a63.66,63.66,0,0,0-63.56-63.75H2388.87V2094.5h531.89a63.66,63.66,0,0,0,63.56-63.76Z"/><path class="cls-27" d="M2984.32,2026.4a66.28,66.28,0,0,0-17.38-45.08,57.27,57.27,0,0,0-41.94-18.67H2428.54V2094.5H2925a57.31,57.31,0,0,0,41.94-18.67,66.31,66.31,0,0,0,17.38-45.09Z"/><path class="cls-52" d="M2451.11,1962.65h-1.83l-20.74,8.94v122.9H2925a57.27,57.27,0,0,0,41.94-18.67,66.21,66.21,0,0,0,17.37-45.08v-4.34c0-1.07,0-2.13-.07-3.2-130,35-278.49,11.53-406.44-20.26C2545.45,1994.9,2471.57,1990.84,2451.11,1962.65Zm-19.72,0h-2.85v3C2429.48,1964.61,2430.43,1963.63,2431.39,1962.65Z"/><path class="cls-26" d="M2719,2026.4a63.66,63.66,0,0,0-63.56-63.75H2123.55V2094.5h531.89a63.66,63.66,0,0,0,63.56-63.76Z"/><path class="cls-27" d="M2719,2026.4a66.28,66.28,0,0,0-17.38-45.08,57.27,57.27,0,0,0-41.94-18.67H2163.22V2094.5h496.46a57.31,57.31,0,0,0,41.94-18.67,66.31,66.31,0,0,0,17.38-45.09Z"/><path class="cls-19" d="M2123.88,1962.65h531.56A63.64,63.64,0,0,1,2719,2026.4v4.34a63.64,63.64,0,0,1-63.55,63.75H2123.88v-12.43h531.56a51.23,51.23,0,0,0,51.16-51.32v-4.34a51.23,51.23,0,0,0-51.16-51.32H2123.88Z"/><path class="cls-26" d="M2201.76,1987.74a41.73,41.73,0,0,0-12,0l-2,6.73a35.18,35.18,0,0,0-10.71,4.45l-6.12-3.37a41.4,41.4,0,0,0-8.5,8.53l3.35,6.14a35.36,35.36,0,0,0-4.43,10.75l-6.71,2a41.31,41.31,0,0,0,0,12.06l6.71,2a35.15,35.15,0,0,0,4.43,10.75l-3.35,6.14a41.45,41.45,0,0,0,8.5,8.54l6.12-3.37a35.44,35.44,0,0,0,10.71,4.45l2,6.72a41,41,0,0,0,12,0l2-6.72a35.44,35.44,0,0,0,10.71-4.45l6.12,3.37a41.45,41.45,0,0,0,8.5-8.54l-3.35-6.14a35.4,35.4,0,0,0,4.43-10.75l6.71-2a42,42,0,0,0,0-12.06l-6.71-2a35.61,35.61,0,0,0-4.43-10.75l3.35-6.14a41.4,41.4,0,0,0-8.5-8.53l-6.12,3.37a35.18,35.18,0,0,0-10.71-4.45Zm-6,25a16.25,16.25,0,1,1-16.19,16.25A16.23,16.23,0,0,1,2195.75,2012.72Z"/><path class="cls-19" d="M2194.35,1987.74a41.8,41.8,0,0,0-12,0l-2,6.73a35.08,35.08,0,0,0-10.71,4.45l-6.13-3.37a41.65,41.65,0,0,0-8.5,8.53l3.35,6.14A35.36,35.36,0,0,0,2154,2021l-6.71,2a42,42,0,0,0,0,12.06l6.71,2a35.15,35.15,0,0,0,4.43,10.75l-3.35,6.14a41.7,41.7,0,0,0,8.5,8.54l6.13-3.37a35.33,35.33,0,0,0,10.71,4.45l2,6.72a41.1,41.1,0,0,0,12,0l2-6.72A35.33,35.33,0,0,0,2207,2059l6.13,3.37a41.7,41.7,0,0,0,8.5-8.54l-3.36-6.14a35.43,35.43,0,0,0,4.44-10.75l6.7-2a42,42,0,0,0,0-12.06l-6.7-2a35.64,35.64,0,0,0-4.44-10.75l3.36-6.14a41.65,41.65,0,0,0-8.5-8.53l-6.13,3.37a35.08,35.08,0,0,0-10.71-4.45Zm-6,25a16.25,16.25,0,1,1-16.2,16.25A16.23,16.23,0,0,1,2188.34,2012.72Z"/><path class="cls-26" d="M2356.83,1987.74a41.8,41.8,0,0,0-12,0l-2,6.73a35.18,35.18,0,0,0-10.71,4.45l-6.12-3.37a41.4,41.4,0,0,0-8.5,8.53l3.35,6.14a35.36,35.36,0,0,0-4.43,10.75l-6.71,2a41.31,41.31,0,0,0,0,12.06l6.71,2a35.15,35.15,0,0,0,4.43,10.75l-3.35,6.14a41.45,41.45,0,0,0,8.5,8.54l6.12-3.37a35.44,35.44,0,0,0,10.71,4.45l2,6.72a41.1,41.1,0,0,0,12,0l2-6.72a35.44,35.44,0,0,0,10.71-4.45l6.12,3.37a41.45,41.45,0,0,0,8.5-8.54l-3.35-6.14a35.4,35.4,0,0,0,4.43-10.75l6.71-2a42,42,0,0,0,0-12.06l-6.71-2a35.61,35.61,0,0,0-4.43-10.75l3.35-6.14a41.4,41.4,0,0,0-8.5-8.53l-6.12,3.37a35.18,35.18,0,0,0-10.71-4.45Zm-6,25a16.25,16.25,0,1,1-16.19,16.25A16.23,16.23,0,0,1,2350.81,2012.72Z"/><path class="cls-19" d="M2349.41,1987.74a41.8,41.8,0,0,0-12,0l-2,6.73a35.08,35.08,0,0,0-10.71,4.45l-6.13-3.37a41.65,41.65,0,0,0-8.5,8.53l3.36,6.14A35.64,35.64,0,0,0,2309,2021l-6.7,2a41.31,41.31,0,0,0,0,12.06l6.7,2a35.43,35.43,0,0,0,4.44,10.75l-3.36,6.14a41.7,41.7,0,0,0,8.5,8.54l6.13-3.37a35.33,35.33,0,0,0,10.71,4.45l2,6.72a41.1,41.1,0,0,0,12,0l2-6.72a35.33,35.33,0,0,0,10.71-4.45l6.13,3.37a41.7,41.7,0,0,0,8.5-8.54l-3.36-6.14a35.43,35.43,0,0,0,4.44-10.75l6.71-2a42,42,0,0,0,0-12.06l-6.71-2a35.64,35.64,0,0,0-4.44-10.75l3.36-6.14a41.65,41.65,0,0,0-8.5-8.53l-6.13,3.37a35.08,35.08,0,0,0-10.71-4.45Zm-6,25a16.25,16.25,0,1,1-16.2,16.25A16.23,16.23,0,0,1,2343.4,2012.72Z"/><path class="cls-26" d="M2511.89,1987.74a41.8,41.8,0,0,0-12,0l-2,6.73a35,35,0,0,0-10.71,4.45l-6.13-3.37a41.4,41.4,0,0,0-8.5,8.53l3.35,6.14a35.36,35.36,0,0,0-4.43,10.75l-6.71,2a41.31,41.31,0,0,0,0,12.06l6.71,2a35.15,35.15,0,0,0,4.43,10.75l-3.35,6.14a41.45,41.45,0,0,0,8.5,8.54l6.13-3.37a35.23,35.23,0,0,0,10.71,4.45l2,6.72a41.1,41.1,0,0,0,12,0l2-6.72a35.33,35.33,0,0,0,10.71-4.45l6.13,3.37a41.65,41.65,0,0,0,8.49-8.54l-3.35-6.14a35.15,35.15,0,0,0,4.43-10.75l6.71-2a42,42,0,0,0,0-12.06l-6.71-2a35.36,35.36,0,0,0-4.43-10.75l3.35-6.14a41.6,41.6,0,0,0-8.49-8.53l-6.13,3.37a35.08,35.08,0,0,0-10.71-4.45Zm-6,25a16.25,16.25,0,1,1-16.19,16.25A16.23,16.23,0,0,1,2505.87,2012.72Z"/><path class="cls-19" d="M2504.47,1987.74a41.8,41.8,0,0,0-12,0l-2,6.73a35.08,35.08,0,0,0-10.71,4.45l-6.13-3.37a41.65,41.65,0,0,0-8.5,8.53l3.36,6.14a35.64,35.64,0,0,0-4.44,10.75l-6.7,2a41.31,41.31,0,0,0,0,12.06l6.7,2a35.43,35.43,0,0,0,4.44,10.75l-3.36,6.14a41.7,41.7,0,0,0,8.5,8.54l6.13-3.37a35.33,35.33,0,0,0,10.71,4.45l2,6.72a41.1,41.1,0,0,0,12,0l2-6.72a35.33,35.33,0,0,0,10.71-4.45l6.13,3.37a41.45,41.45,0,0,0,8.5-8.54l-3.35-6.14a35.4,35.4,0,0,0,4.43-10.75l6.71-2a42,42,0,0,0,0-12.06l-6.71-2a35.61,35.61,0,0,0-4.43-10.75l3.35-6.14a41.4,41.4,0,0,0-8.5-8.53l-6.13,3.37a35.08,35.08,0,0,0-10.71-4.45Zm-6,25a16.25,16.25,0,1,1-16.19,16.25A16.23,16.23,0,0,1,2498.46,2012.72Z"/><path class="cls-26" d="M2667,1987.74a41.8,41.8,0,0,0-12,0l-2,6.73a35.08,35.08,0,0,0-10.71,4.45l-6.13-3.37a41.65,41.65,0,0,0-8.5,8.53l3.35,6.14a35.61,35.61,0,0,0-4.43,10.75l-6.71,2a42,42,0,0,0,0,12.06l6.71,2a35.4,35.4,0,0,0,4.43,10.75l-3.35,6.14a41.7,41.7,0,0,0,8.5,8.54l6.13-3.37a35.33,35.33,0,0,0,10.71,4.45l2,6.72a41.1,41.1,0,0,0,12,0l2-6.72a35.33,35.33,0,0,0,10.71-4.45l6.13,3.37a41.7,41.7,0,0,0,8.5-8.54l-3.36-6.14a35.43,35.43,0,0,0,4.44-10.75l6.7-2a41.31,41.31,0,0,0,0-12.06l-6.7-2a35.64,35.64,0,0,0-4.44-10.75l3.36-6.14a41.65,41.65,0,0,0-8.5-8.53l-6.13,3.37a35.08,35.08,0,0,0-10.71-4.45Zm-6,25a16.25,16.25,0,1,1-16.2,16.25A16.23,16.23,0,0,1,2660.94,2012.72Z"/><path class="cls-19" d="M2659.53,1987.74a41.73,41.73,0,0,0-12,0l-2,6.73a35.18,35.18,0,0,0-10.71,4.45l-6.12-3.37a41.4,41.4,0,0,0-8.5,8.53l3.35,6.14a35.36,35.36,0,0,0-4.43,10.75l-6.71,2a41.31,41.31,0,0,0,0,12.06l6.71,2a35.15,35.15,0,0,0,4.43,10.75l-3.35,6.14a41.45,41.45,0,0,0,8.5,8.54l6.12-3.37a35.44,35.44,0,0,0,10.71,4.45l2,6.72a41,41,0,0,0,12,0l2-6.72a35.44,35.44,0,0,0,10.71-4.45l6.12,3.37a41.45,41.45,0,0,0,8.5-8.54l-3.35-6.14a35.4,35.4,0,0,0,4.43-10.75l6.71-2a42,42,0,0,0,0-12.06l-6.71-2a35.61,35.61,0,0,0-4.43-10.75l3.35-6.14a41.4,41.4,0,0,0-8.5-8.53l-6.12,3.37a35.18,35.18,0,0,0-10.71-4.45Zm-6,25a16.25,16.25,0,1,1-16.19,16.25A16.23,16.23,0,0,1,2653.52,2012.72Z"/><path class="cls-53" d="M2911.08,1785.17H2446.34v109.12l-11.88,13.39v621.87h476.62Z"/><rect class="cls-54" x="2485.85" y="2067.3" width="137.57" height="94.26"/><rect class="cls-54" x="2691.12" y="2067.3" width="137.57" height="94.26"/><rect class="cls-55" x="2485.85" y="2098.38" width="137.57" height="63.19"/><rect class="cls-55" x="2691.12" y="2098.38" width="137.57" height="63.19"/><ellipse class="cls-40" cx="2547.25" cy="1984.3" rx="42.69" ry="40.44"/><ellipse class="cls-40" cx="2654.2" cy="1984.3" rx="42.69" ry="40.44"/><ellipse class="cls-40" cx="2761.15" cy="1984.3" rx="42.69" ry="40.44"/><path class="cls-41" d="M2545.37,1980.71a5.15,5.15,0,0,0-2.18,3.77,5,5,0,0,0,1.59,4l23.61,22.43s-9.8-18.74-14.83-28.38a5.41,5.41,0,0,0-3.64-2.74,5.62,5.62,0,0,0-4.54.89Zm3.09,3.91h0a.32.32,0,0,1,.27-.06.34.34,0,0,1,.21.16l.85,1.64-1.36-1.3a.28.28,0,0,1-.1-.23A.32.32,0,0,1,2548.46,1984.62Z"/><path class="cls-42" d="M2652.32,1980.71a5.12,5.12,0,0,0-2.18,3.77,5,5,0,0,0,1.59,4l23.61,22.43-14.84-28.38a5.4,5.4,0,0,0-3.63-2.74,5.64,5.64,0,0,0-4.55.89Zm3.09,3.91h0a.31.31,0,0,1,.47.1l.86,1.64-1.36-1.3a.25.25,0,0,1-.1-.23A.32.32,0,0,1,2655.41,1984.62Z"/><path class="cls-43" d="M2759.27,1980.71a5.09,5.09,0,0,0-2.18,3.77,5,5,0,0,0,1.58,4l23.61,22.43-14.83-28.38a5.4,5.4,0,0,0-3.63-2.74,5.64,5.64,0,0,0-4.55.89Zm3.09,3.91h0a.3.3,0,0,1,.26-.06.31.31,0,0,1,.21.16l.86,1.64-1.36-1.3a.25.25,0,0,1-.1-.23A.32.32,0,0,1,2762.36,1984.62Z"/><path class="cls-56" d="M2911.08,1785.69h-10.19v171.13l-.26,21V2501h10.45Z"/><path class="cls-56" d="M2911.08,1785.17H2446.34v108.35l-12.27,13.84h466.26l10.75-12.93Z"/><rect class="cls-57" x="2446.34" y="1785.17" width="464.74" height="108.29"/><path class="cls-58" d="M2911.08,1431.77h348.17a56,56,0,0,1,55.95,56.14V2529.56H2911.08Z"/><path class="cls-53" d="M2949.67,1886.6a6.36,6.36,0,0,1-4.58,2.25c-5.24,0-9.48-8.09-9.48-18s4.24-18,9.48-18c2,0,3.87,1.19,5.4,3.22-2.92,3.08-4.89,9-4.89,15.79C2945.6,1877.91,2947.21,1883.34,2949.67,1886.6Z"/><path class="cls-53" d="M2949.67,2002.55a6.35,6.35,0,0,1-4.58,2.24c-5.24,0-9.48-8.08-9.48-18s4.24-18,9.48-18c2,0,3.87,1.19,5.4,3.21-2.92,3.09-4.89,9-4.89,15.8C2945.6,1993.86,2947.21,1999.29,2949.67,2002.55Z"/><path class="cls-53" d="M2949.67,2118.49a6.33,6.33,0,0,1-4.58,2.25c-5.24,0-9.48-8.08-9.48-18s4.24-18,9.48-18c2,0,3.87,1.18,5.4,3.21-2.92,3.08-4.89,9-4.89,15.8C2945.6,2109.8,2947.21,2115.23,2949.67,2118.49Z"/><path class="cls-59" d="M3074.79,2072.56l240.41-68.07v236.78l-240.41-150.52Z"/><path class="cls-53" d="M3057.15,1448.48l-136,348.94a4.08,4.08,0,1,0,7.59,3l136-349a4.08,4.08,0,1,0-7.59-3Z"/><path class="cls-56" d="M3041.38,1449.56c4.17-11-1.35-20-12.34-20H2603.63c-11,0-23.3,9-27.48,20l-127.42,336.29c-4.17,11,1.36,20,12.34,20h425.42c11,0,23.29-9,27.47-20Z"/><path class="cls-53" d="M3020.41,1461.46c3.88-10.24-1.26-18.56-11.47-18.56h-395.3c-10.21,0-21.66,8.32-25.54,18.56L2469.7,1774c-3.88,10.24,1.26,18.56,11.47,18.56h395.31c10.21,0,21.65-8.32,25.53-18.56Z"/><path class="cls-20" d="M2605.51,1664.68q10.68-13.23,37-28,22.89-12.86,30.32-18.42,11.46-8.67,15.44-19,3.25-8.38.78-14t-11.12-5.55a24.73,24.73,0,0,0-19.51,8.84q-4.44,5.1-9.2,16.23h-25.19q7.18-16.87,16.66-27.27,18-19.78,44.49-19.78,20.91,0,28.76,11.63t.43,30.77a65.89,65.89,0,0,1-18.83,26.08q-8.67,7.57-25.36,16.87l-13.22,7.39q-12.42,6.93-17.21,10a51.61,51.61,0,0,0-8.84,7.21h57.54l-8.87,22.88h-90.26A93.47,93.47,0,0,1,2605.51,1664.68Z"/><path class="cls-20" d="M2782.48,1552.15H2804l-105.77,138.52h-21.37Z"/><path class="cls-20" d="M2784.88,1650.09q-3.09,7.94-2.55,13.13,1,9.58,13.46,9.58,7.64,0,15.35-5.24a31.4,31.4,0,0,0,11.54-15.1q5.06-13.05-3.79-17.42-5.05-2.46-17.95-2.46l7.21-18.6q12.7-.18,18.59-2.47,10.11-3.83,14.64-15.5,2.92-7.56.36-12.31c-1.71-3.15-5.24-4.74-10.57-4.74a22.91,22.91,0,0,0-15.76,5.84,37.94,37.94,0,0,0-10.18,15.6h-24.18a94.75,94.75,0,0,1,10.61-18.7,74.12,74.12,0,0,1,15.55-14.32,56.11,56.11,0,0,1,14.85-7.11,61.31,61.31,0,0,1,18.13-2.46q18.9,0,26.7,9.8t1.39,26.31a46.27,46.27,0,0,1-14.54,19.69,39.83,39.83,0,0,1-11.75,6.85q3.54,0,7.81,6.1,6.35,9.21.16,25.18-6.49,16.77-23,29.49T2787.69,1694q-28,0-31.8-18.33-1.95-9.75,3.53-25.53Z"/><path class="cls-60" d="M2477.3,1792.06c.15-.53.34-1.08.54-1.63l118.41-312.49c3.87-10.24,15.31-18.56,25.52-18.56h395.32a16.37,16.37,0,0,1,3.87.45c2.77-9.48-2.35-16.93-12-16.93H2613.63c-10.21,0-21.64,8.32-25.52,18.56L2469.7,1774C2466.35,1782.8,2469.73,1790.21,2477.3,1792.06Z"/><path class="cls-61" d="M2866.63,1442.9l-337.72,174.79L2469.7,1774c-3,8-.55,14.85,5.56,17.44l531.12-292.89,14-37c3.87-10.24-1.27-18.56-11.47-18.56Zm-111.69,0H2613.63c-10.21,0-21.64,8.32-25.52,18.56L2552.66,1555Z"/><rect class="cls-50" x="3074.68" y="1537.93" width="216.53" height="426.02"/><path class="cls-51" d="M3291.21,1963.94l-216.53-426h216.53Z"/><rect class="cls-25" x="3280.18" y="1537.93" width="11.03" height="426.02"/><path class="cls-26" d="M3935.05,2027.31a63.64,63.64,0,0,0-63.55-63.75H3339.6v131.85h531.9a63.64,63.64,0,0,0,63.55-63.76Z"/><path class="cls-27" d="M3935.05,2027.31a66.29,66.29,0,0,0-17.37-45.08,57.31,57.31,0,0,0-41.94-18.67H3379.28v131.85h496.46a57.31,57.31,0,0,0,41.94-18.67,66.28,66.28,0,0,0,17.37-45.09Z"/><path class="cls-62" d="M3401.85,1963.56H3400l-20.75,9v122.9h496.46a57.32,57.32,0,0,0,41.95-18.67,66.29,66.29,0,0,0,17.37-45.08v-4.34c0-1.08,0-2.14-.07-3.2-130,35-278.49,11.52-406.45-20.27C3496.18,1995.81,3422.31,1991.75,3401.85,1963.56Zm-19.72,0h-2.86v3C3380.22,1965.53,3381.17,1964.54,3382.13,1963.56Z"/><path class="cls-26" d="M3669.73,2027.31a63.64,63.64,0,0,0-63.55-63.75h-531.9v131.85h531.9a63.64,63.64,0,0,0,63.55-63.76Z"/><path class="cls-27" d="M3669.73,2027.31a66.29,66.29,0,0,0-17.37-45.08,57.32,57.32,0,0,0-42-18.67H3114v131.85h496.45a57.32,57.32,0,0,0,42-18.67,66.28,66.28,0,0,0,17.37-45.09Z"/><path class="cls-19" d="M3074.62,1963.56h531.56a63.64,63.64,0,0,1,63.55,63.76v4.34a63.64,63.64,0,0,1-63.55,63.75H3074.62V2083h531.56a51.25,51.25,0,0,0,51.16-51.31v-4.34a51.25,51.25,0,0,0-51.16-51.32H3074.62Z"/><path class="cls-26" d="M3152.5,1988.65a41.73,41.73,0,0,0-12,0l-2,6.73a35.33,35.33,0,0,0-10.71,4.45l-6.13-3.37a42,42,0,0,0-8.5,8.54l3.36,6.14a35.48,35.48,0,0,0-4.44,10.74l-6.7,2a41.38,41.38,0,0,0,0,12.07l6.7,2a35.48,35.48,0,0,0,4.44,10.74l-3.36,6.15a42.15,42.15,0,0,0,8.5,8.53l6.13-3.37a35.08,35.08,0,0,0,10.71,4.45l2,6.73a41,41,0,0,0,12,0l2-6.73a35.08,35.08,0,0,0,10.71-4.45l6.13,3.37a41.65,41.65,0,0,0,8.5-8.53l-3.35-6.15a35.45,35.45,0,0,0,4.43-10.74l6.71-2a42.08,42.08,0,0,0,0-12.07l-6.71-2a35.45,35.45,0,0,0-4.43-10.74l3.35-6.14a41.45,41.45,0,0,0-8.5-8.54l-6.13,3.37a35.33,35.33,0,0,0-10.71-4.45Zm-6,25a16.25,16.25,0,1,1-16.19,16.25A16.23,16.23,0,0,1,3146.49,2013.63Z"/><path class="cls-19" d="M3145.09,1988.65a41.8,41.8,0,0,0-12,0l-1.95,6.73a35.39,35.39,0,0,0-10.72,4.45l-6.12-3.37a41.45,41.45,0,0,0-8.5,8.54l3.35,6.14a35.2,35.2,0,0,0-4.43,10.74l-6.71,2a41.38,41.38,0,0,0,0,12.07l6.71,2a35.2,35.2,0,0,0,4.43,10.74l-3.35,6.15a41.65,41.65,0,0,0,8.5,8.53l6.12-3.37a35.14,35.14,0,0,0,10.72,4.45l1.95,6.73a41.1,41.1,0,0,0,12,0l2-6.73a35.08,35.08,0,0,0,10.71-4.45l6.13,3.37a41.85,41.85,0,0,0,8.49-8.53l-3.35-6.15a35.2,35.2,0,0,0,4.43-10.74l6.71-2a42.08,42.08,0,0,0,0-12.07l-6.71-2a35.2,35.2,0,0,0-4.43-10.74l3.35-6.14a41.65,41.65,0,0,0-8.49-8.54l-6.13,3.37a35.33,35.33,0,0,0-10.71-4.45Zm-6,25a16.25,16.25,0,1,1-16.19,16.25A16.23,16.23,0,0,1,3139.07,2013.63Z"/><path class="cls-26" d="M3307.56,1988.65a41.73,41.73,0,0,0-12,0l-2,6.73a35.44,35.44,0,0,0-10.71,4.45l-6.12-3.37a41.45,41.45,0,0,0-8.5,8.54l3.35,6.14a35.2,35.2,0,0,0-4.43,10.74l-6.71,2a41.38,41.38,0,0,0,0,12.07l6.71,2a35.2,35.2,0,0,0,4.43,10.74l-3.35,6.15a41.65,41.65,0,0,0,8.5,8.53l6.12-3.37a35.18,35.18,0,0,0,10.71,4.45l2,6.73a41,41,0,0,0,12,0l2-6.73a35.18,35.18,0,0,0,10.71-4.45l6.12,3.37a41.65,41.65,0,0,0,8.5-8.53l-3.35-6.15a35.45,35.45,0,0,0,4.43-10.74l6.71-2a42.08,42.08,0,0,0,0-12.07l-6.71-2a35.45,35.45,0,0,0-4.43-10.74l3.35-6.14a41.45,41.45,0,0,0-8.5-8.54l-6.12,3.37a35.44,35.44,0,0,0-10.71-4.45Zm-6,25a16.25,16.25,0,1,1-16.19,16.25A16.23,16.23,0,0,1,3301.55,2013.63Z"/><path class="cls-19" d="M3300.15,1988.65a41.8,41.8,0,0,0-12,0l-1.95,6.73a35.33,35.33,0,0,0-10.71,4.45l-6.13-3.37a41.45,41.45,0,0,0-8.5,8.54l3.35,6.14a35.2,35.2,0,0,0-4.43,10.74l-6.71,2a42.08,42.08,0,0,0,0,12.07l6.71,2a35.2,35.2,0,0,0,4.43,10.74l-3.35,6.15a41.65,41.65,0,0,0,8.5,8.53l6.13-3.37a35.08,35.08,0,0,0,10.71,4.45l1.95,6.73a41.1,41.1,0,0,0,12,0l2-6.73a35.08,35.08,0,0,0,10.71-4.45l6.13,3.37a41.9,41.9,0,0,0,8.5-8.53l-3.36-6.15a35.48,35.48,0,0,0,4.44-10.74l6.7-2a42.08,42.08,0,0,0,0-12.07l-6.7-2a35.48,35.48,0,0,0-4.44-10.74l3.36-6.14a41.7,41.7,0,0,0-8.5-8.54l-6.13,3.37a35.33,35.33,0,0,0-10.71-4.45Zm-6,25a16.25,16.25,0,1,1-16.2,16.25A16.22,16.22,0,0,1,3294.14,2013.63Z"/><path class="cls-26" d="M3462.63,1988.65a41.8,41.8,0,0,0-12,0l-2,6.73a35.44,35.44,0,0,0-10.71,4.45l-6.12-3.37a41.45,41.45,0,0,0-8.5,8.54l3.35,6.14a35.2,35.2,0,0,0-4.43,10.74l-6.71,2a41.38,41.38,0,0,0,0,12.07l6.71,2a35.2,35.2,0,0,0,4.43,10.74l-3.35,6.15a41.65,41.65,0,0,0,8.5,8.53l6.12-3.37a35.18,35.18,0,0,0,10.71,4.45l2,6.73a41.1,41.1,0,0,0,12,0l2-6.73a35.18,35.18,0,0,0,10.71-4.45l6.12,3.37a41.65,41.65,0,0,0,8.5-8.53l-3.35-6.15a35.45,35.45,0,0,0,4.43-10.74l6.71-2a42.08,42.08,0,0,0,0-12.07l-6.71-2a35.45,35.45,0,0,0-4.43-10.74l3.35-6.14a41.45,41.45,0,0,0-8.5-8.54l-6.12,3.37a35.44,35.44,0,0,0-10.71-4.45Zm-6,25a16.25,16.25,0,1,1-16.19,16.25A16.23,16.23,0,0,1,3456.61,2013.63Z"/><path class="cls-19" d="M3455.21,1988.65a41.8,41.8,0,0,0-12,0l-1.95,6.73a35.33,35.33,0,0,0-10.71,4.45l-6.13-3.37a41.7,41.7,0,0,0-8.5,8.54l3.36,6.14a35.22,35.22,0,0,0-4.44,10.74l-6.71,2a42.08,42.08,0,0,0,0,12.07l6.71,2a35.22,35.22,0,0,0,4.44,10.74l-3.36,6.15a41.9,41.9,0,0,0,8.5,8.53l6.13-3.37a35.08,35.08,0,0,0,10.71,4.45l1.95,6.73a41.1,41.1,0,0,0,12,0l2-6.73a35.08,35.08,0,0,0,10.71-4.45l6.13,3.37a41.9,41.9,0,0,0,8.5-8.53l-3.36-6.15a35.48,35.48,0,0,0,4.44-10.74l6.7-2a41.38,41.38,0,0,0,0-12.07l-6.7-2a35.48,35.48,0,0,0-4.44-10.74l3.36-6.14a41.7,41.7,0,0,0-8.5-8.54l-6.13,3.37a35.33,35.33,0,0,0-10.71-4.45Zm-6,25a16.25,16.25,0,1,1-16.2,16.25A16.23,16.23,0,0,1,3449.2,2013.63Z"/><path class="cls-26" d="M3617.69,1988.65a41.8,41.8,0,0,0-12,0l-1.95,6.73a35.23,35.23,0,0,0-10.71,4.45l-6.13-3.37a41.45,41.45,0,0,0-8.5,8.54l3.35,6.14a35.2,35.2,0,0,0-4.43,10.74l-6.71,2a41.38,41.38,0,0,0,0,12.07l6.71,2a35.2,35.2,0,0,0,4.43,10.74l-3.35,6.15a41.65,41.65,0,0,0,8.5,8.53l6.13-3.37a35,35,0,0,0,10.71,4.45l1.95,6.73a41.1,41.1,0,0,0,12,0l2-6.73a35.08,35.08,0,0,0,10.71-4.45l6.13,3.37a41.85,41.85,0,0,0,8.49-8.53l-3.35-6.15a35.48,35.48,0,0,0,4.44-10.74l6.7-2a42.08,42.08,0,0,0,0-12.07l-6.7-2a35.48,35.48,0,0,0-4.44-10.74L3645,2005a41.65,41.65,0,0,0-8.49-8.54l-6.13,3.37a35.33,35.33,0,0,0-10.71-4.45Zm-6,25a16.25,16.25,0,1,1-16.19,16.25A16.23,16.23,0,0,1,3611.67,2013.63Z"/><path class="cls-19" d="M3610.27,1988.65a41.8,41.8,0,0,0-12,0l-1.95,6.73a35.33,35.33,0,0,0-10.71,4.45l-6.13-3.37a41.7,41.7,0,0,0-8.5,8.54l3.36,6.14a35.48,35.48,0,0,0-4.44,10.74l-6.7,2a41.38,41.38,0,0,0,0,12.07l6.7,2a35.48,35.48,0,0,0,4.44,10.74l-3.36,6.15a41.9,41.9,0,0,0,8.5,8.53l6.13-3.37a35.08,35.08,0,0,0,10.71,4.45l1.95,6.73a41.1,41.1,0,0,0,12,0l2-6.73a35.08,35.08,0,0,0,10.71-4.45l6.13,3.37a41.65,41.65,0,0,0,8.5-8.53l-3.35-6.15a35.45,35.45,0,0,0,4.43-10.74l6.71-2a42.08,42.08,0,0,0,0-12.07l-6.71-2a35.45,35.45,0,0,0-4.43-10.74l3.35-6.14a41.45,41.45,0,0,0-8.5-8.54l-6.13,3.37a35.33,35.33,0,0,0-10.71-4.45Zm-6,25a16.25,16.25,0,1,1-16.19,16.25A16.23,16.23,0,0,1,3604.26,2013.63Z"/><path class="cls-63" d="M3854.8,1788.91H3390.06V1898l-11.88,13.39v621.87H3854.8Z"/><rect class="cls-64" x="3429.57" y="2071.04" width="137.57" height="94.26"/><rect class="cls-64" x="3634.84" y="2071.04" width="137.57" height="94.26"/><rect class="cls-65" x="3429.57" y="2102.12" width="137.57" height="63.19"/><rect class="cls-65" x="3634.84" y="2102.12" width="137.57" height="63.19"/><ellipse class="cls-40" cx="3490.97" cy="1988.04" rx="42.69" ry="40.44"/><ellipse class="cls-40" cx="3597.92" cy="1988.04" rx="42.69" ry="40.44"/><ellipse class="cls-40" cx="3704.87" cy="1988.04" rx="42.69" ry="40.44"/><path class="cls-41" d="M3489.09,1984.45a5.12,5.12,0,0,0-2.18,3.77,5,5,0,0,0,1.59,4l23.61,22.43-14.84-28.38a5.4,5.4,0,0,0-3.63-2.74,5.65,5.65,0,0,0-4.54.89Zm3.09,3.91h0a.31.31,0,0,1,.26-.06.41.41,0,0,1,.22.16l.85,1.65-1.36-1.3a.31.31,0,0,1-.1-.24A.32.32,0,0,1,3492.18,1988.36Z"/><path class="cls-42" d="M3596,1984.45a5.12,5.12,0,0,0-2.18,3.77,5,5,0,0,0,1.58,4l23.62,22.43-14.84-28.38a5.4,5.4,0,0,0-3.63-2.74,5.68,5.68,0,0,0-4.55.89Zm3.09,3.91h0a.3.3,0,0,1,.26-.06.38.38,0,0,1,.21.16l.86,1.65-1.36-1.3a.28.28,0,0,1-.1-.24A.32.32,0,0,1,3599.13,1988.36Z"/><path class="cls-43" d="M3703,1984.45a5.09,5.09,0,0,0-2.18,3.77,5,5,0,0,0,1.58,4l23.61,22.43-14.83-28.38a5.4,5.4,0,0,0-3.63-2.74,5.68,5.68,0,0,0-4.55.89Zm3.09,3.91h0a.3.3,0,0,1,.26-.06.38.38,0,0,1,.21.16l.86,1.65-1.37-1.3a.3.3,0,0,1-.09-.24A.28.28,0,0,1,3706.08,1988.36Z"/><path class="cls-66" d="M3854.8,1791.56h-10.19v171.13l-.26,21v523.18h10.45Z"/><path class="cls-66" d="M3854.8,1788.91H3390.06v108.35l-12.27,13.84h466.26l10.75-12.93Z"/><rect class="cls-65" x="3390.06" y="1788.91" width="464.74" height="108.29"/><path class="cls-66" d="M3854.8,1435.51H4203a56,56,0,0,1,55.95,56.14V2533.3H3854.8Z"/><path class="cls-41" d="M3893.39,1890.34a6.38,6.38,0,0,1-4.59,2.25c-5.23,0-9.47-8.09-9.47-18s4.24-18,9.47-18c2,0,3.88,1.19,5.41,3.22-2.92,3.08-4.89,9-4.89,15.8C3889.32,1881.65,3890.93,1887.08,3893.39,1890.34Z"/><path class="cls-41" d="M3893.39,2006.29a6.37,6.37,0,0,1-4.59,2.24c-5.23,0-9.47-8.08-9.47-18s4.24-18,9.47-18c2,0,3.88,1.19,5.41,3.22-2.92,3.08-4.89,9-4.89,15.79C3889.32,1997.6,3890.93,2003,3893.39,2006.29Z"/><path class="cls-41" d="M3893.39,2122.23a6.35,6.35,0,0,1-4.59,2.25c-5.23,0-9.47-8.08-9.47-18s4.24-18,9.47-18c2,0,3.88,1.19,5.41,3.21-2.92,3.08-4.89,9-4.89,15.8C3889.32,2113.55,3890.93,2119,3893.39,2122.23Z"/><path class="cls-67" d="M4018.51,2076.31l240.41-68.08V2245l-240.41-150.52Z"/><path class="cls-63" d="M4000.87,1452.22l-136,348.94a4.08,4.08,0,1,0,7.59,3l136-349a4.08,4.08,0,1,0-7.59-3Z"/><path class="cls-63" d="M3985.1,1453.3c4.17-11-1.35-20-12.34-20H3547.35c-11,0-23.3,9-27.48,20l-127.42,336.29c-4.18,11,1.35,20,12.34,20h425.42c11,0,23.29-9,27.47-20Z"/><path class="cls-68" d="M3964.13,1465.2c3.88-10.24-1.26-18.56-11.47-18.56H3557.35c-10.21,0-21.65,8.32-25.53,18.56l-118.4,312.49c-3.88,10.24,1.26,18.56,11.47,18.56H3820.2c10.21,0,21.65-8.32,25.52-18.56Z"/><path class="cls-20" d="M3644,1657.16q8.55-10.61,29.65-22.42Q3692,1624.44,3698,1620q9.18-6.93,12.37-15.19,2.61-6.72.62-11.18c-1.33-3-4.29-4.45-8.91-4.45a19.82,19.82,0,0,0-15.62,7.08q-3.55,4.1-7.37,13h-20.17q5.74-13.51,13.34-21.85,14.45-15.84,35.63-15.84,16.76,0,23,9.31t.34,24.65a52.61,52.61,0,0,1-15.08,20.88q-6.94,6.07-20.31,13.52l-10.59,5.92q-9.95,5.55-13.78,8a42.1,42.1,0,0,0-7.09,5.77h46.09l-7.1,18.34h-72.3A74.69,74.69,0,0,1,3644,1657.16Z"/><path class="cls-20" d="M3785.77,1567H3803l-84.72,111h-17.11Z"/><path class="cls-20" d="M3787.69,1645.47q-2.46,6.36-2,10.52.82,7.66,10.78,7.67a21.79,21.79,0,0,0,12.3-4.2,25.09,25.09,0,0,0,9.24-12.09q4.05-10.45-3-13.95-4-2-14.37-2l5.77-14.9q10.17-.15,14.89-2,8.1-3.06,11.72-12.41,2.36-6.06.3-9.86t-8.47-3.8a18.35,18.35,0,0,0-12.62,4.68,30.33,30.33,0,0,0-8.16,12.49h-19.36a75.72,75.72,0,0,1,8.5-15,59.36,59.36,0,0,1,12.45-11.47,45.05,45.05,0,0,1,11.89-5.69,49.28,49.28,0,0,1,14.52-2q15.15,0,21.39,7.85t1.11,21.07a37.09,37.09,0,0,1-11.64,15.77,32,32,0,0,1-9.41,5.49c1.89,0,4,1.62,6.25,4.88q5.08,7.38.13,20.17-5.21,13.44-18.44,23.62t-31.44,10.19q-22.43,0-25.46-14.68-1.58-7.8,2.82-20.45Z"/><path class="cls-20" d="M3595.46,1651.65h-11.79l-9.86,22.49h-20l9.86-22.49h-41.24l7.87-18,66.13-63.43h23l-28.64,65.31h11.79Zm-24.79-16.07,19.8-45.13-45.88,45.13Z"/><path class="cls-69" d="M3421,1795.8c.15-.53.34-1.08.54-1.63L3540,1481.68c3.87-10.24,15.31-18.55,25.52-18.55H3960.8a16.4,16.4,0,0,1,3.88.44c2.76-9.48-2.35-16.93-12-16.93H3557.35c-10.21,0-21.64,8.32-25.52,18.56l-118.41,312.49C3410.07,1786.54,3413.45,1794,3421,1795.8Z"/><path class="cls-70" d="M3810.35,1446.64l-337.72,174.79-59.21,156.26c-3,8-.55,14.85,5.56,17.44l531.12-292.89,14-37c3.88-10.24-1.26-18.56-11.46-18.56Zm-111.7,0h-141.3c-10.21,0-21.64,8.32-25.52,18.56l-35.45,93.55Z"/><rect class="cls-50" x="4018.39" y="1541.67" width="216.53" height="426.02"/><path class="cls-51" d="M4234.92,1967.68l-216.53-426h216.53Z"/><rect class="cls-25" x="4223.89" y="1541.67" width="11.03" height="426.02"/><path class="cls-26" d="M4878.77,2031.05a63.66,63.66,0,0,0-63.55-63.75h-531.9v131.85h531.9a63.64,63.64,0,0,0,63.55-63.75Z"/><path class="cls-27" d="M4878.77,2031.05A66.25,66.25,0,0,0,4861.4,1986a57.29,57.29,0,0,0-41.95-18.68H4323v131.85h496.46a57.32,57.32,0,0,0,41.95-18.67,66.27,66.27,0,0,0,17.37-45.08Z"/><path class="cls-71" d="M4345.57,1967.3h-1.83l-20.75,9v122.9h496.46a57.32,57.32,0,0,0,41.95-18.67,66.29,66.29,0,0,0,17.37-45.08v-4.34c0-1.08,0-2.14-.07-3.2-130,35-278.49,11.52-406.45-20.27C4439.9,1999.56,4366,1995.5,4345.57,1967.3Zm-19.73,0H4323v3Z"/><path class="cls-26" d="M4613.45,2031.05a63.66,63.66,0,0,0-63.55-63.75H4018v131.85h531.9a63.64,63.64,0,0,0,63.55-63.75Z"/><path class="cls-27" d="M4613.45,2031.05a66.25,66.25,0,0,0-17.37-45.07,57.29,57.29,0,0,0-41.95-18.68H4057.67v131.85h496.46a57.32,57.32,0,0,0,41.95-18.67,66.27,66.27,0,0,0,17.37-45.08Z"/><path class="cls-19" d="M4018.34,1967.3H4549.9a63.64,63.64,0,0,1,63.55,63.76v4.34a63.64,63.64,0,0,1-63.55,63.75H4018.34v-12.44H4549.9a51.23,51.23,0,0,0,51.15-51.31v-4.34a51.23,51.23,0,0,0-51.15-51.32H4018.34Z"/><path class="cls-26" d="M4096.22,1992.39a41.8,41.8,0,0,0-12,0l-2,6.73a35.58,35.58,0,0,0-10.71,4.45l-6.13-3.36a41.4,41.4,0,0,0-8.5,8.53l3.36,6.14a35.48,35.48,0,0,0-4.44,10.74l-6.7,2a41.38,41.38,0,0,0,0,12.07l6.7,2a35.48,35.48,0,0,0,4.44,10.74l-3.36,6.15a41.9,41.9,0,0,0,8.5,8.53l6.13-3.37a35.35,35.35,0,0,0,10.71,4.46l2,6.72a41.1,41.1,0,0,0,12,0l2-6.72a35.35,35.35,0,0,0,10.71-4.46L4115,2067a41.9,41.9,0,0,0,8.5-8.53l-3.35-6.15a35.71,35.71,0,0,0,4.43-10.74l6.71-2a42.08,42.08,0,0,0,0-12.07l-6.71-2a35.71,35.71,0,0,0-4.43-10.74l3.35-6.14a41.4,41.4,0,0,0-8.5-8.53l-6.13,3.36a35.58,35.58,0,0,0-10.71-4.45Zm-6,25a16.25,16.25,0,1,1-16.2,16.25A16.23,16.23,0,0,1,4090.21,2017.37Z"/><path class="cls-19" d="M4088.81,1992.39a41.8,41.8,0,0,0-12,0l-2,6.73a35.69,35.69,0,0,0-10.71,4.45l-6.12-3.36a41.16,41.16,0,0,0-8.5,8.53l3.35,6.14a35.2,35.2,0,0,0-4.43,10.74l-6.71,2a41.38,41.38,0,0,0,0,12.07l6.71,2a35.2,35.2,0,0,0,4.43,10.74l-3.35,6.15a41.65,41.65,0,0,0,8.5,8.53l6.12-3.37a35.46,35.46,0,0,0,10.71,4.46l2,6.72a41.1,41.1,0,0,0,12,0l2-6.72a35.46,35.46,0,0,0,10.71-4.46l6.12,3.37a41.65,41.65,0,0,0,8.5-8.53l-3.35-6.15a35.45,35.45,0,0,0,4.43-10.74l6.71-2a42.08,42.08,0,0,0,0-12.07l-6.71-2a35.45,35.45,0,0,0-4.43-10.74l3.35-6.14a41.16,41.16,0,0,0-8.5-8.53l-6.12,3.36a35.69,35.69,0,0,0-10.71-4.45Zm-6,25a16.25,16.25,0,1,1-16.19,16.25A16.23,16.23,0,0,1,4082.79,2017.37Z"/><path class="cls-26" d="M4251.28,1992.39a41.73,41.73,0,0,0-12,0l-2,6.73a35.58,35.58,0,0,0-10.71,4.45l-6.13-3.36a41.65,41.65,0,0,0-8.5,8.53l3.36,6.14a35.48,35.48,0,0,0-4.44,10.74l-6.7,2a41.38,41.38,0,0,0,0,12.07l6.7,2a35.48,35.48,0,0,0,4.44,10.74l-3.36,6.15a42.15,42.15,0,0,0,8.5,8.53l6.13-3.37a35.35,35.35,0,0,0,10.71,4.46l2,6.72a41,41,0,0,0,12,0l2-6.72a35.35,35.35,0,0,0,10.71-4.46l6.13,3.37a41.65,41.65,0,0,0,8.5-8.53l-3.35-6.15a35.45,35.45,0,0,0,4.43-10.74l6.71-2a42.08,42.08,0,0,0,0-12.07l-6.71-2a35.45,35.45,0,0,0-4.43-10.74l3.35-6.14a41.16,41.16,0,0,0-8.5-8.53l-6.13,3.36a35.58,35.58,0,0,0-10.71-4.45Zm-6,25a16.25,16.25,0,1,1-16.19,16.25A16.23,16.23,0,0,1,4245.27,2017.37Z"/><path class="cls-19" d="M4243.87,1992.39a41.8,41.8,0,0,0-12,0l-1.95,6.73a35.48,35.48,0,0,0-10.71,4.45l-6.13-3.36a41.16,41.16,0,0,0-8.5,8.53l3.35,6.14a35.2,35.2,0,0,0-4.43,10.74l-6.71,2a41.38,41.38,0,0,0,0,12.07l6.71,2a35.2,35.2,0,0,0,4.43,10.74l-3.35,6.15a41.65,41.65,0,0,0,8.5,8.53l6.13-3.37a35.25,35.25,0,0,0,10.71,4.46l1.95,6.72a41.1,41.1,0,0,0,12,0l2-6.72a35.35,35.35,0,0,0,10.71-4.46l6.13,3.37a41.85,41.85,0,0,0,8.49-8.53l-3.35-6.15a35.48,35.48,0,0,0,4.44-10.74l6.7-2a42.08,42.08,0,0,0,0-12.07l-6.7-2a35.48,35.48,0,0,0-4.44-10.74l3.35-6.14a41.35,41.35,0,0,0-8.49-8.53l-6.13,3.36a35.58,35.58,0,0,0-10.71-4.45Zm-6,25a16.25,16.25,0,1,1-16.19,16.25A16.23,16.23,0,0,1,4237.85,2017.37Z"/><path class="cls-26" d="M4406.34,1992.39a41.73,41.73,0,0,0-12,0l-2,6.73a35.69,35.69,0,0,0-10.71,4.45l-6.12-3.36a41.16,41.16,0,0,0-8.5,8.53l3.35,6.14a35.2,35.2,0,0,0-4.43,10.74l-6.71,2a41.38,41.38,0,0,0,0,12.07l6.71,2a35.2,35.2,0,0,0,4.43,10.74l-3.35,6.15a41.65,41.65,0,0,0,8.5,8.53l6.12-3.37a35.46,35.46,0,0,0,10.71,4.46l2,6.72a41,41,0,0,0,12,0l2-6.72a35.46,35.46,0,0,0,10.71-4.46l6.12,3.37a41.65,41.65,0,0,0,8.5-8.53l-3.35-6.15a35.45,35.45,0,0,0,4.43-10.74l6.71-2a42.08,42.08,0,0,0,0-12.07l-6.71-2a35.45,35.45,0,0,0-4.43-10.74l3.35-6.14a41.16,41.16,0,0,0-8.5-8.53l-6.12,3.36a35.69,35.69,0,0,0-10.71-4.45Zm-6,25a16.25,16.25,0,1,1-16.19,16.25A16.23,16.23,0,0,1,4400.33,2017.37Z"/><path class="cls-19" d="M4398.93,1992.39a41.8,41.8,0,0,0-12,0l-1.95,6.73a35.58,35.58,0,0,0-10.71,4.45l-6.13-3.36a41.16,41.16,0,0,0-8.5,8.53l3.35,6.14a35.2,35.2,0,0,0-4.43,10.74l-6.71,2a42.08,42.08,0,0,0,0,12.07l6.71,2a35.2,35.2,0,0,0,4.43,10.74l-3.35,6.15a41.65,41.65,0,0,0,8.5,8.53l6.13-3.37a35.35,35.35,0,0,0,10.71,4.46l1.95,6.72a41.1,41.1,0,0,0,12,0l2-6.72a35.35,35.35,0,0,0,10.71-4.46l6.13,3.37a41.9,41.9,0,0,0,8.5-8.53l-3.36-6.15a35.48,35.48,0,0,0,4.44-10.74l6.7-2a42.08,42.08,0,0,0,0-12.07l-6.7-2a35.48,35.48,0,0,0-4.44-10.74l3.36-6.14a41.4,41.4,0,0,0-8.5-8.53l-6.13,3.36a35.58,35.58,0,0,0-10.71-4.45Zm-6,25a16.25,16.25,0,1,1-16.2,16.25A16.22,16.22,0,0,1,4392.92,2017.37Z"/></g></g></svg>