<svg xmlns="http://www.w3.org/2000/svg" viewBox="0 0 4800 2700"><defs><style>.cls-1{fill:#58e8d1;}.cls-2{fill:#11b5a1;}.cls-3{fill:#125d58;}.cls-4{fill:#c7f8ee;}.cls-5{fill:#089284;}.cls-6{fill:#5525ad;}.cls-7{isolation:isolate;}.cls-8{fill:#6c29d7;}.cls-9{font-size:88.41px;font-family:OpenSans-SemiBold, Open Sans;font-weight:600;}.cls-10,.cls-11,.cls-13,.cls-14,.cls-9{fill:#fff;}.cls-11,.cls-12{font-size:294.39px;}.cls-11,.cls-12,.cls-13,.cls-14{font-family:OpenSans-Bold, Open Sans;font-weight:700;}.cls-12{fill:#91f4df;}.cls-13{font-size:97.55px;}.cls-14{font-size:123.37px;}.cls-15,.cls-16,.cls-17{fill:none;stroke:#fff;}.cls-15,.cls-16{stroke-linecap:round;stroke-linejoin:round;}.cls-15{stroke-width:15px;}.cls-16{stroke-width:7px;}.cls-17{stroke-miterlimit:10;stroke-width:6px;}</style></defs><g id="Layer_4" data-name="Layer 4"><rect class="cls-1" width="4800" height="2700"/></g><g id="Layer_3" data-name="Layer 3"><polygon class="cls-2" points="0 998.32 106.87 928.87 2040.15 559.17 2162.7 626.57 2665.17 405.98 4728.66 1644.28 4800 1684.62 4800 2700 0 2700 0 998.32"/><path class="cls-3" d="M1085.2,1257.3l.18,65.15c0,16.87,11.13,33.71,33.27,46.57l-.18-65.15C1096.33,1291,1085.24,1274.16,1085.2,1257.3Z"/><path class="cls-3" d="M4745.62,1613.32l-.19-65.16c0,17.08-11.22,34.18-33.78,47.21l.18,65.16C4734.4,1647.5,4745.67,1630.4,4745.62,1613.32Z"/><polygon class="cls-3" points="1118.47 1303.87 1118.65 1369.02 3080.3 2509.01 3080.12 2443.85 1118.47 1303.87"/><polygon class="cls-4" points="3242.02 2443.86 3242.2 2509.02 4711.83 1660.53 4711.65 1595.37 3242.02 2443.86"/><path class="cls-3" d="M3242.2,2509a135.12,135.12,0,0,1-31.67,12.95c-25,6.91-53.38,8.28-79.66,4.11-18.54-2.94-36-8.63-50.57-17.07l-.18-65.16c14.57,8.47,32.14,14.17,50.75,17.1,26.3,4.14,54.68,2.75,79.66-4.19a135.27,135.27,0,0,0,31.49-12.9Z"/><path class="cls-5" d="M1119,1210.09c-44.84,25.89-45.08,67.88-.51,93.78l1961.65,1140c44.56,25.9,117.05,25.9,161.9,0l1469.63-848.49c44.84-25.89,45.08-67.88.51-93.78l-1961.65-1140c-44.57-25.9-117.05-25.9-161.9,0Z"/><path class="cls-4" d="M2669.66,348.84c29.42,0,57,6.58,77.51,18.52l1961.64,1140c19.34,11.24,30,25.79,30,41s-10.84,30-30.46,41.29L3238.69,2438.09c-20.69,11.95-48.29,18.53-77.72,18.53s-56.95-6.58-77.51-18.53l-1961.64-1140c-19.34-11.24-30-25.79-30-41s10.84-30,30.46-41.28L2591.94,367.37c20.69-11.95,48.29-18.53,77.72-18.53m0-6.66c-29.3,0-58.63,6.47-81,19.42L1119,1210.09c-44.84,25.89-45.08,67.88-.51,93.78l1961.65,1140c22.28,13,51.55,19.43,80.85,19.43s58.63-6.48,81.05-19.42l1469.62-848.49c44.85-25.89,45.09-67.88.52-93.78l-1961.65-1140c-22.28-12.95-51.55-19.43-80.85-19.43Z"/><path class="cls-6" d="M4670.77,1525.66,2713.24,395.48c-17.83-10.29-44.79-11.41-60.23-2.5l-1475.53,851.9c-15.43,8.91-13.5,24.48,4.33,34.77L3139.34,2409.83c17.83,10.29,44.79,11.41,60.23,2.5l1475.52-851.9C4690.53,1551.52,4688.6,1536,4670.77,1525.66Z"/><path d="M2679.17,393.63c11.15,0,22.35,2.77,30.74,7.62L4667.44,1531.43c7.15,4.12,11.41,9.32,11.41,13.9,0,4.33-3.85,7.46-7.09,9.33l-1475.52,851.9c-5.73,3.3-13.83,5.12-22.83,5.12-11.15,0-22.35-2.78-30.74-7.62L1185.14,1273.88c-7.15-4.13-11.42-9.32-11.42-13.9,0-4.33,3.86-7.47,7.1-9.33l1475.52-851.9c5.73-3.3,13.83-5.12,22.83-5.12m0-6.67c-9.81,0-19.16,2-26.16,6l-1475.53,851.9c-15.43,8.91-13.5,24.48,4.33,34.77L3139.34,2409.83c9.75,5.63,22.23,8.51,34.07,8.51,9.8,0,19.16-2,26.16-6l1475.52-851.9c15.44-8.91,13.51-24.48-4.32-34.77L2713.24,395.48c-9.75-5.63-22.23-8.52-34.07-8.52Z"/><g class="cls-7"><path d="M4521.19,1519.94l-.16,29.19c-.05,18.21-12,36.4-35.92,50.29l.16-29.19C4509.17,1556.33,4521.14,1538.15,4521.19,1519.94Z"/><polygon points="4485.27 1570.23 4485.11 1599.42 4404.8 1646.09 4404.95 1616.9 4485.27 1570.23"/><polygon points="4404.95 1616.9 4404.8 1646.09 2516.23 555.73 2516.39 526.54 4404.95 1616.9"/><path class="cls-8" d="M4484.68,1468.93c48.45,28,48.71,73.33.59,101.3L4405,1616.9,2516.39,526.54l80.32-46.67c48.12-28,126.4-28,174.85,0Z"/></g><text class="cls-9" transform="matrix(0.88, 0.51, -0.87, 0.5, 2649.8, 545.15)">Simplifying Fractions</text><ellipse class="cls-10" cx="4200.91" cy="1398.65" rx="31.85" ry="55.18" transform="translate(2775.86 5590.68) rotate(-89.64)"/><ellipse class="cls-10" cx="4306.02" cy="1459.33" rx="31.85" ry="55.18" transform="translate(2819.62 5756.08) rotate(-89.64)"/><ellipse class="cls-10" cx="4402.88" cy="1515.26" rx="31.85" ry="55.18" transform="translate(2859.95 5908.52) rotate(-89.64)"/><g class="cls-7"><path d="M2791.24,868.44l-.06,20c0,9.6-6.34,19.19-18.94,26.51l.05-20C2784.9,887.63,2791.21,878,2791.24,868.44Z"/><path d="M2036.81,888.08l0-20c0,9.73,6.4,19.46,19.25,26.88l-.06,20C2043.2,907.55,2036.78,897.81,2036.81,888.08Z"/><polygon points="2772.29 894.95 2772.24 914.96 2461.25 1095.69 2461.31 1075.68 2772.29 894.95"/><polygon points="2369.13 1075.68 2369.07 1095.69 2056.05 914.97 2056.11 894.95 2369.13 1075.68"/><path d="M2461.31,1075.68l-.06,20c-25.37,14.74-66.64,14.74-92.18,0l.06-20C2394.66,1090.42,2435.94,1090.42,2461.31,1075.68Z"/><path class="cls-8" d="M2772,841.56c25.54,14.74,25.68,38.64.3,53.39l-311,180.73c-25.37,14.74-66.65,14.74-92.18,0L2056.11,895c-25.54-14.74-25.68-38.65-.3-53.39l311-180.73c25.38-14.74,66.65-14.74,92.18,0Z"/></g><g class="cls-7"><path d="M2217.65,1196.8l-.06,20c0,9.6-6.33,19.19-18.94,26.52l.06-20C2211.31,1216,2217.62,1206.4,2217.65,1196.8Z"/><path d="M1463.22,1216.44l.06-20c0,9.73,6.39,19.47,19.24,26.89l-.06,20C1469.61,1235.91,1463.19,1226.17,1463.22,1216.44Z"/><polygon points="2198.71 1223.32 2198.65 1243.33 1887.66 1424.05 1887.72 1404.04 2198.71 1223.32"/><polygon points="1795.54 1404.04 1795.48 1424.05 1482.46 1243.33 1482.52 1223.32 1795.54 1404.04"/><path d="M1887.72,1404l-.06,20c-25.37,14.74-66.64,14.74-92.18,0l.06-20C1821.08,1418.78,1862.35,1418.78,1887.72,1404Z"/><path class="cls-8" d="M2198.41,1169.92c25.53,14.74,25.67,38.65.3,53.39l-311,180.73c-25.37,14.74-66.64,14.74-92.18,0l-313-180.72c-25.54-14.75-25.67-38.65-.3-53.4l311-180.72c25.38-14.75,66.65-14.75,92.19,0Z"/></g><g class="cls-7"><path d="M1891.84,930.18l.06-22.45c0,4.3,2.83,8.61,8.52,11.9l-.07,22.45C1894.67,938.79,1891.83,934.48,1891.84,930.18Z"/><polygon points="2311.47 1156.95 2311.41 1179.4 1900.36 942.08 1900.42 919.63 2311.47 1156.95"/><path d="M2360.62,1145.22l-.06,22.45c0,4.25-2.81,8.49-8.38,11.73-11.23,6.52-29.48,6.52-40.77,0l.06-22.45c11.3,6.52,29.55,6.52,40.77,0C2357.82,1153.71,2360.61,1149.46,2360.62,1145.22Z"/><path class="cls-8" d="M2352.11,1133.33c11.3,6.52,11.35,17.1.13,23.62s-29.47,6.52-40.77,0l-411-237.32c-11.3-6.53-11.36-17.1-.14-23.62s29.48-6.52,40.78,0Z"/></g><text class="cls-11" transform="matrix(0.87, 0.5, -0.87, 0.5, 2235.38, 879.19)">4</text><text class="cls-11" transform="matrix(0.87, 0.5, -0.87, 0.5, 1566.54, 1158.97)">12</text><g class="cls-7"><path d="M3435.51,1240.88l-.06,20c0,9.6-6.34,19.18-18.94,26.51l0-20C3429.17,1260.06,3435.48,1250.48,3435.51,1240.88Z"/><path d="M2681.08,1260.52l.05-20c0,9.72,6.39,19.46,19.24,26.88l0,20C2687.47,1280,2681.05,1270.24,2681.08,1260.52Z"/><polygon points="3416.56 1267.39 3416.51 1287.4 3105.52 1468.13 3105.58 1448.11 3416.56 1267.39"/><polygon points="3013.39 1448.11 3013.34 1468.13 2700.32 1287.4 2700.37 1267.39 3013.39 1448.11"/><path d="M3105.58,1448.11l-.06,20c-25.37,14.75-66.64,14.75-92.18,0l.06-20C3038.93,1462.86,3080.21,1462.86,3105.58,1448.11Z"/><path class="cls-8" d="M3416.26,1214c25.54,14.75,25.68,38.65.3,53.4l-311,180.72c-25.37,14.75-66.65,14.75-92.18,0l-313-180.72c-25.53-14.74-25.67-38.65-.3-53.39l311-180.73c25.38-14.75,66.65-14.74,92.18,0Z"/></g><g class="cls-7"><path d="M2861.92,1569.24l-.06,20c0,9.6-6.33,19.19-18.94,26.51l.06-20C2855.58,1588.43,2861.89,1578.84,2861.92,1569.24Z"/><path d="M2107.49,1588.88l.06-20c0,9.73,6.39,19.47,19.24,26.89l-.06,20C2113.88,1608.35,2107.46,1598.61,2107.49,1588.88Z"/><polygon points="2842.98 1595.75 2842.92 1615.76 2531.93 1796.49 2531.99 1776.48 2842.98 1595.75"/><polygon points="2439.81 1776.48 2439.75 1796.49 2126.73 1615.77 2126.79 1595.76 2439.81 1776.48"/><path d="M2532,1776.48l-.06,20c-25.37,14.74-66.64,14.74-92.18,0l.06-20C2465.35,1791.22,2506.62,1791.22,2532,1776.48Z"/><path class="cls-8" d="M2842.68,1542.36c25.53,14.74,25.67,38.65.3,53.39l-311,180.73c-25.37,14.74-66.64,14.74-92.18,0l-313-180.72c-25.54-14.75-25.67-38.66-.3-53.4l311-180.73c25.38-14.74,66.65-14.74,92.19,0Z"/></g><g class="cls-7"><path d="M2536.11,1302.62l.06-22.45c0,4.3,2.83,8.61,8.52,11.89l-.07,22.45C2538.94,1311.23,2536.1,1306.92,2536.11,1302.62Z"/><polygon points="2955.74 1529.38 2955.68 1551.84 2544.62 1314.51 2544.69 1292.06 2955.74 1529.38"/><path d="M3004.89,1517.65l-.06,22.46c0,4.24-2.81,8.48-8.39,11.73-11.22,6.52-29.47,6.52-40.76,0l.06-22.46c11.3,6.53,29.55,6.53,40.77,0C3002.08,1526.14,3004.88,1521.9,3004.89,1517.65Z"/><path class="cls-8" d="M2996.38,1505.77c11.3,6.52,11.35,17.09.13,23.61s-29.47,6.53-40.77,0l-411-237.32c-11.3-6.52-11.36-17.09-.14-23.62s29.48-6.52,40.78,0Z"/></g><text class="cls-12" transform="matrix(0.87, 0.5, -0.87, 0.5, 2876.75, 1248.72)">4</text><text class="cls-12" transform="matrix(0.87, 0.5, -0.87, 0.5, 2306.58, 1583.65)">4</text><g class="cls-7"><path d="M4202.63,1683l-.06,20c0,9.6-6.33,19.18-18.94,26.51l.06-20C4196.29,1702.15,4202.6,1692.57,4202.63,1683Z"/><path d="M3448.2,1702.61l.06-20c0,9.72,6.39,19.46,19.24,26.88l-.06,20C3454.59,1722.07,3448.17,1712.33,3448.2,1702.61Z"/><polygon points="4183.69 1709.48 4183.63 1729.49 3872.64 1910.21 3872.7 1890.2 4183.69 1709.48"/><polygon points="3780.52 1890.2 3780.46 1910.21 3467.44 1729.49 3467.5 1709.48 3780.52 1890.2"/><path d="M3872.7,1890.2l0,20c-25.38,14.75-66.65,14.75-92.19,0l.06-20C3806.06,1905,3847.33,1905,3872.7,1890.2Z"/><path class="cls-8" d="M4183.39,1656.08c25.53,14.75,25.67,38.65.3,53.4l-311,180.72c-25.37,14.75-66.64,14.75-92.18,0l-313-180.72c-25.54-14.74-25.67-38.65-.3-53.4l311-180.72c25.38-14.75,66.65-14.74,92.19,0Z"/></g><g class="cls-7"><path d="M3629,2011.33l-.05,20c0,9.6-6.34,19.19-18.95,26.51l.06-20C3622.71,2030.51,3629,2020.93,3629,2011.33Z"/><path d="M2874.61,2031l.06-20c0,9.72,6.39,19.46,19.24,26.88l0,20C2881,2050.44,2874.59,2040.7,2874.61,2031Z"/><polygon points="3610.1 2037.84 3610.04 2057.85 3299.06 2238.58 3299.11 2218.57 3610.1 2037.84"/><polygon points="3206.93 2218.57 3206.88 2238.58 2893.86 2057.86 2893.91 2037.84 3206.93 2218.57"/><path d="M3299.11,2218.57l-.05,20c-25.37,14.74-66.65,14.74-92.18,0l0-20C3232.47,2233.31,3273.74,2233.31,3299.11,2218.57Z"/><path class="cls-8" d="M3609.8,1984.45c25.54,14.74,25.68,38.64.3,53.39l-311,180.73c-25.37,14.74-66.64,14.74-92.18,0l-313-180.73c-25.53-14.74-25.67-38.65-.3-53.39l311-180.73c25.37-14.74,66.64-14.74,92.18,0Z"/></g><g class="cls-7"><path d="M3303.23,1744.71l.07-22.45c0,4.3,2.83,8.61,8.51,11.89l-.06,22.45C3306.06,1753.32,3303.22,1749,3303.23,1744.71Z"/><polygon points="3722.86 1971.47 3722.8 1993.92 3311.75 1756.6 3311.81 1734.15 3722.86 1971.47"/><path d="M3772,1959.74l-.06,22.45c0,4.25-2.8,8.49-8.38,11.73-11.22,6.52-29.47,6.52-40.77,0l.06-22.45c11.3,6.52,29.55,6.52,40.77,0C3769.21,1968.23,3772,1964,3772,1959.74Z"/><path class="cls-8" d="M3763.51,1947.85c11.29,6.53,11.34,17.1.12,23.62s-29.47,6.52-40.77,0l-411.05-237.32c-11.29-6.52-11.36-17.1-.14-23.62s29.49-6.52,40.78,0Z"/></g><text class="cls-11" transform="matrix(0.87, 0.5, -0.87, 0.5, 3643.87, 1690.81)">1</text><text class="cls-11" transform="matrix(0.87, 0.5, -0.87, 0.5, 3073.71, 2025.74)">3</text><g class="cls-7"><polygon points="3347.17 1646.17 3347.12 1661.55 3292.79 1693.13 3292.83 1677.74 3347.17 1646.17"/><polygon points="3292.83 1677.74 3292.79 1693.13 3071.71 1565.98 3071.76 1550.59 3292.83 1677.74"/><polygon class="cls-8" points="3347.17 1646.17 3292.83 1677.74 3071.76 1550.59 3126.09 1519.02 3347.17 1646.17"/></g><g class="cls-7"><polygon points="3234.82 1712.6 3234.77 1727.98 3180.44 1759.56 3180.48 1744.18 3234.82 1712.6"/><polygon points="3180.48 1744.18 3180.44 1759.56 2959.36 1632.41 2959.41 1617.03 3180.48 1744.18"/><polygon class="cls-8" points="3234.82 1712.6 3180.48 1744.18 2959.41 1617.03 3013.74 1585.45 3234.82 1712.6"/></g><g class="cls-7"><path d="M2599.39,1169.6l0,17.5c0,9-6,18.07-17.84,25-23.9,13.89-62.78,13.89-86.84,0-12.11-7-18.15-16.16-18.13-25.32l0-17.5c0,9.16,6,18.33,18.13,25.32,24.06,13.89,62.94,13.89,86.84,0C2593.42,1187.67,2599.36,1178.64,2599.39,1169.6Z"/><ellipse class="cls-8" cx="2537.99" cy="1169.42" rx="35.57" ry="61.4" transform="translate(1361.38 3704.08) rotate(-89.84)"/></g><g class="cls-7"><path d="M2413.66,1284.29l0,17.5c0,9-6,18.08-17.84,25-23.9,13.88-62.78,13.88-86.84,0-12.1-7-18.15-16.17-18.12-25.33l0-17.5c0,9.16,6,18.33,18.13,25.32,24.06,13.89,62.94,13.89,86.84,0C2407.69,1302.36,2413.63,1293.33,2413.66,1284.29Z"/><ellipse class="cls-8" cx="2352.26" cy="1284.11" rx="35.57" ry="61.4" transform="translate(1061.48 3632.72) rotate(-89.84)"/></g><path class="cls-3" d="M4014,2048.18l-86.14,49.73c-4.57,2.64-8.27-.16-8.27-6.26h0c0-6.09,3.7-13.17,8.27-15.81l86.14-49.73c4.57-2.64,8.28.16,8.28,6.25h0C4022.31,2038.46,4018.6,2045.54,4014,2048.18Z"/><path class="cls-3" d="M2066.45,508.33l-.17,60.31c-.06,19.56-12.92,39.1-38.61,54l.17-60.31C2053.53,547.43,2066.39,527.9,2066.45,508.33Z"/><path class="cls-3" d="M68.78,983.08,69,922.77c-.06,19.82,13,39.67,39.22,54.79l-.18,60.3C81.8,1022.74,68.72,1002.89,68.78,983.08Z"/><polygon class="cls-4" points="2027.85 562.36 2027.67 622.67 806.2 1332.51 806.37 1272.2 2027.85 562.36"/><polygon class="cls-3" points="618.51 1272.21 618.34 1332.51 107.99 1037.86 108.17 977.56 618.51 1272.21"/><path class="cls-3" d="M806.37,1272.21l-.17,60.3a156.11,156.11,0,0,1-37.54,15.31c-30.78,8.35-66,9.47-98,3.34-19.1-3.64-37.06-9.86-52.28-18.65l.17-60.3c15.18,8.76,33.08,15,52.11,18.62,32,6.15,67.24,5.06,98-3.27A156.32,156.32,0,0,0,806.37,1272.21Z"/><path class="cls-5" d="M2027.23,453.55c52.05,30.05,52.32,78.76.61,108.81L806.37,1272.21c-51.71,30-135.81,30-187.86,0L108.17,977.56c-52-30-52.33-78.77-.62-108.82L1329,158.9c51.71-30.05,135.82-30.05,187.87,0Z"/><path class="cls-4" d="M1422.83,141.67c34.57,0,67,7.75,91.41,21.82l510.34,294.65c23.55,13.6,36.53,31.36,36.56,50s-12.74,36.13-36,49.62L803.71,1267.62c-24.22,14.07-56.58,21.82-91.14,21.82s-67-7.76-91.41-21.83L110.82,973c-23.55-13.59-36.54-31.35-36.56-50,0-18.5,12.74-36.13,36-49.62L1331.69,163.49c24.21-14.07,56.58-21.82,91.14-21.82h0m0-5.31c-34,0-67.95,7.51-93.8,22.54L107.55,868.74c-51.71,30-51.43,78.77.62,108.82l510.34,294.65c26,15,60.06,22.53,94.06,22.53s67.95-7.51,93.8-22.53L2027.84,562.36c51.71-30.05,51.44-78.76-.61-108.81L1516.89,158.9c-26-15-60.06-22.54-94.06-22.54Z"/><path class="cls-6" d="M1998,534.65,776.21,1240.07c-31.51,18.2-83,18.09-114.71-.24L150.63,944.88c-31.75-18.32-31.93-48-.42-66.23L1372,173.23c31.51-18.2,83-18.09,114.71.24l510.87,295C2029.37,486.75,2029.55,516.46,1998,534.65Z"/><path d="M1429,163.69c21.1,0,40.89,4.71,55.72,13.27l510.87,295c14.13,8.16,21.91,18.76,21.91,29.85s-7.63,21.39-21.5,29.4L774.19,1236.58c-14.55,8.41-34.07,13-55,13-21.11,0-40.9-4.71-55.73-13.27L152.64,941.39c-14.13-8.16-21.91-18.76-21.91-29.84s7.63-21.4,21.5-29.4L1374.06,176.72c14.55-8.4,34.07-13,55-13h0m0-4c-20.67,0-41.29,4.53-57,13.58L150.21,878.65c-31.51,18.2-31.33,47.91.42,66.23L661.5,1239.83c16,9.21,36.87,13.82,57.74,13.82,20.67,0,41.29-4.52,57-13.58L1998,534.65c31.51-18.19,31.33-47.9-.42-66.23l-510.87-295c-16-9.21-36.87-13.82-57.74-13.82Z"/><path d="M1900.22,412.18a174.76,174.76,0,0,1-52.36,7.64c-27.86-.06-55.75-6.26-77.09-18.57L1612,309.57c-35.17-20.31-41.52-50.92-18.94-74.74Z"/><path class="cls-10" d="M397.28,1183.18l-59.46-34.33c-3.68-2.13-6.66-7.83-6.66-12.73h0c0-4.91,3-7.17,6.66-5l59.46,34.33c3.68,2.12,6.67,7.82,6.67,12.73h0C404,1183.05,401,1185.3,397.28,1183.18Z"/><g class="cls-7"><path class="cls-10" d="M291.63,879.55l-.18,62.7c0,5.09-3.36,10.18-10.05,14.07-8,4.67-19,6.55-29.51,5.66a47.51,47.51,0,0,1-19.41-5.66c-6.83-3.94-10.23-9.11-10.22-14.27l.18-62.66c0,5.14,3.41,10.3,10.21,14.23a47.36,47.36,0,0,0,19.24,5.64c10.51.93,21.62-1,29.69-5.64C288.27,889.73,291.61,884.64,291.63,879.55Z"/><path class="cls-1" d="M281.42,865.28c13.55,7.82,13.62,20.51.16,28.34s-35.37,7.82-48.93,0S219,873.1,232.5,865.28,267.87,857.45,281.42,865.28Z"/></g><g class="cls-7"><path class="cls-10" d="M278.19,838.66l-.1,38.41c0,3.13-2.07,6.24-6.16,8.62-5.42,3.15-13.07,4.22-20,3.24a27.79,27.79,0,0,1-9.93-3.24c-4.18-2.41-6.27-5.58-6.26-8.74l.11-38.4c0,3.16,2.09,6.32,6.25,8.73a27.77,27.77,0,0,0,9.83,3.22c7,1,14.7-.06,20.15-3.22C276.14,844.9,278.18,841.77,278.19,838.66Z"/><path class="cls-1" d="M271.94,829.92c8.3,4.79,8.35,12.56.1,17.36s-21.67,4.79-30,0-8.35-12.57-.1-17.36S263.64,825.12,271.94,829.92Z"/></g><path class="cls-5" d="M251.89,850.5v38.43a27.79,27.79,0,0,1-9.93-3.24c-4.18-2.41-6.27-5.58-6.26-8.74l.11-38.4c0,3.16,2.09,6.32,6.25,8.73A27.77,27.77,0,0,0,251.89,850.5Z"/><path class="cls-5" d="M232.65,893.62a47.36,47.36,0,0,0,19.24,5.64V962a47.51,47.51,0,0,1-19.41-5.66c-6.83-3.94-10.23-9.11-10.22-14.27l.18-62.66C222.44,884.53,225.85,889.69,232.65,893.62Z"/><g class="cls-7"><path class="cls-10" d="M2218.71,1735.91l-.18,62.7c0,5.1-3.36,10.18-10,14.08-8,4.66-19.06,6.55-29.52,5.65a47.5,47.5,0,0,1-19.41-5.65c-6.82-4-10.23-9.11-10.22-14.28l.18-62.65c0,5.14,3.41,10.29,10.21,14.22a47.36,47.36,0,0,0,19.24,5.64c10.52.93,21.62-.95,29.69-5.64C2215.35,1746.09,2218.7,1741,2218.71,1735.91Z"/><path class="cls-1" d="M2208.5,1721.64c13.55,7.83,13.62,20.51.16,28.34s-35.37,7.82-48.92,0-13.63-20.51-.16-28.34S2195,1713.82,2208.5,1721.64Z"/></g><g class="cls-7"><path class="cls-10" d="M2205.27,1695l-.1,38.41c0,3.13-2.06,6.24-6.16,8.62-5.42,3.15-13.07,4.23-20,3.25a28,28,0,0,1-9.93-3.25c-4.18-2.41-6.27-5.58-6.26-8.74l.11-38.39c0,3.16,2.09,6.32,6.25,8.72a28,28,0,0,0,9.83,3.23c7,1,14.7-.06,20.15-3.23C2203.22,1701.26,2205.27,1698.14,2205.27,1695Z"/><path class="cls-1" d="M2199,1686.28c8.3,4.79,8.35,12.57.1,17.36s-21.67,4.79-30,0-8.35-12.57-.1-17.36S2190.72,1681.48,2199,1686.28Z"/></g><path class="cls-5" d="M2179,1706.87v38.43a28,28,0,0,1-9.93-3.25c-4.18-2.41-6.27-5.58-6.26-8.74l.11-38.39c0,3.16,2.09,6.32,6.25,8.72A28,28,0,0,0,2179,1706.87Z"/><path class="cls-5" d="M2159.73,1750a47.36,47.36,0,0,0,19.24,5.64v62.72a47.5,47.5,0,0,1-19.41-5.65c-6.82-4-10.23-9.11-10.22-14.28l.18-62.65C2149.52,1740.9,2152.93,1746.05,2159.73,1750Z"/><path class="cls-4" d="M768.66,1287.56v60.26c-30.78,8.35-66,9.47-98,3.34v-60.33C702.64,1297,737.86,1295.89,768.66,1287.56Z"/><path class="cls-4" d="M3210.53,2456.76V2522c-25,6.91-53.38,8.28-79.66,4.11V2461C3157.17,2465.09,3185.55,2463.7,3210.53,2456.76Z"/><text class="cls-13" transform="matrix(0.89, -0.51, 0.87, 0.5, 446.23, 884.9)">Factors :</text><text class="cls-14" transform="matrix(0.89, -0.51, 0.87, 0.5, 679.17, 998.99)"><tspan xml:space="preserve">4   : 1, 2, </tspan><tspan class="cls-1" x="510.29" y="0">4</tspan><tspan x="0" y="148.05">12 : 1, 2, 3, </tspan><tspan class="cls-1" x="654.87" y="148.05">4</tspan><tspan x="725.29" y="148.05">, 6, 12</tspan></text><path class="cls-15" d="M257,835.43V757.52c0-47.92-52-77.72-93.36-53.49h0A215.56,215.56,0,0,0,57.09,890v55.74A256.75,256.75,0,0,0,185.9,1168.36L611.47,1413c96.33,55.38,95.66,194.6-1.21,249h0c-66.59,37.42-67,133.13-.8,171.18l98.7,56.68a431.08,431.08,0,0,0,413.7,8.58l207.32-107.89a376.36,376.36,0,0,1,363.21,8.66l227,132.27a77.73,77.73,0,0,0,78.08.1h0a77.72,77.72,0,0,0,38.79-66.85l.43-79.34a110.13,110.13,0,0,1,54.85-94.65l59.38-34.46a21.41,21.41,0,0,1,32.16,18.52v13.87"/><path class="cls-16" d="M1419.23,365.8l-935,539.81a107.6,107.6,0,0,1-107.57,0l-22.34-12.9c-27.48-15.87-27.48-55.54,0-71.41L1287,282.81a123.34,123.34,0,0,1,123.36,0l8.84,5.1C1449.21,305.22,1449.21,348.49,1419.23,365.8Z"/><polyline class="cls-17" points="266.19 953.38 482.7 1076.45 576.15 1021.3"/><ellipse class="cls-10" cx="576.15" cy="1021.3" rx="21.46" ry="12.39" transform="matrix(1, -0.01, 0.01, 1, -6.41, 3.65)"/><ellipse class="cls-10" cx="706.87" cy="1103" rx="21.46" ry="12.39" transform="matrix(1, -0.01, 0.01, 1, -6.93, 4.47)"/><polyline class="cls-17" points="482.7 1076.45 617.51 1154.57 696.15 1110.66"/></g></svg>